<?xml version="1.0" encoding="utf-8"?>
<!-- Generator: Adobe Illustrator 27.0.0, SVG Export Plug-In . SVG Version: 6.00 Build 0)  -->
<svg version="1.1" id="Layer_1" xmlns="http://www.w3.org/2000/svg" xmlns:xlink="http://www.w3.org/1999/xlink" x="0px" y="0px"
	 viewBox="0 0 1080 864" style="enable-background:new 0 0 1080 864;" xml:space="preserve">
<style type="text/css">
	.st0{fill:#FFFFFF;}
	
		.st1{clip-path:url(#SVGID_00000080909612212635144530000005708738181477924749_);fill:#FFFFFF;stroke:#FFFFFF;stroke-width:1.07;stroke-linecap:round;stroke-linejoin:round;stroke-miterlimit:10;}
	.st2{clip-path:url(#SVGID_00000098928981850779809180000006353434458726837667_);}
	.st3{fill:none;stroke:#000000;stroke-width:3.2;stroke-linejoin:round;stroke-miterlimit:10;}
	.st4{fill:#FFFFFF;stroke:#000000;stroke-width:2.83;stroke-linecap:round;stroke-linejoin:round;stroke-miterlimit:10;}
	.st5{fill:#BEBEBE;stroke:#000000;stroke-width:2.83;stroke-linecap:round;stroke-linejoin:round;stroke-miterlimit:10;}
	.st6{fill:none;stroke:#000000;stroke-width:1.07;stroke-linejoin:round;stroke-miterlimit:10;}
	.st7{fill:none;stroke:#000000;stroke-width:4.27;stroke-linejoin:round;stroke-miterlimit:10;stroke-dasharray:5.69,17.07;}
	.st8{clip-path:url(#SVGID_00000094584764260479514690000006814687508376260788_);}
	.st9{fill:none;}
	.st10{fill:#4D4D4D;}
	.st11{font-family:'ArialMT';}
	.st12{font-size:16px;}
	.st13{fill:none;stroke:#333333;stroke-width:1.07;stroke-linejoin:round;stroke-miterlimit:10;}
	.st14{enable-background:new    ;}
	.st15{font-size:20px;}
	.st16{clip-path:url(#SVGID_00000000183312778638989880000009540052397091129482_);}
	.st17{fill:#FFFFFF;stroke:#FFFFFF;stroke-width:1.07;stroke-linecap:round;stroke-linejoin:round;stroke-miterlimit:10;}
	.st18{clip-path:url(#SVGID_00000130645658212813889230000011881754328680409259_);}
	.st19{fill:none;stroke:#E9CB9A;stroke-width:3.2;stroke-linejoin:round;stroke-miterlimit:10;}
	.st20{clip-path:url(#SVGID_00000134219863385948717480000010447343649082356115_);}
	.st21{font-size:17.6px;}
	.st22{font-size:22px;}
</style>
<rect class="st0" width="1080" height="864"/>
<g>
	<defs>
		<rect id="SVGID_1_" width="1080" height="864"/>
	</defs>
	<clipPath id="SVGID_00000152944006781754959330000000151424372710166433_">
		<use xlink:href="#SVGID_1_"  style="overflow:visible;"/>
	</clipPath>
</g>
<g>
	<defs>
		<rect id="SVGID_00000143593200069325740160000013627207440566483093_" width="1080" height="432"/>
	</defs>
	<clipPath id="SVGID_00000091001487058714993150000004658240166233438877_">
		<use xlink:href="#SVGID_00000143593200069325740160000013627207440566483093_"  style="overflow:visible;"/>
	</clipPath>
	
		<rect style="clip-path:url(#SVGID_00000091001487058714993150000004658240166233438877_);fill:#FFFFFF;stroke:#FFFFFF;stroke-width:1.07;stroke-linecap:round;stroke-linejoin:round;stroke-miterlimit:10;" width="1080" height="432"/>
</g>
<g>
	<defs>
		<rect id="SVGID_00000000194029439843358400000004971569788780368050_" width="1080" height="864"/>
	</defs>
	<clipPath id="SVGID_00000121237240013877014710000014181946690213389483_">
		<use xlink:href="#SVGID_00000000194029439843358400000004971569788780368050_"  style="overflow:visible;"/>
	</clipPath>
</g>
<g>
	<defs>
		<rect id="SVGID_00000061467268695831902780000012735978030498628542_" x="105.8" y="65.9" width="968.7" height="318.2"/>
	</defs>
	<clipPath id="SVGID_00000064352623207841272510000013108287279476325038_">
		<use xlink:href="#SVGID_00000061467268695831902780000012735978030498628542_"  style="overflow:visible;"/>
	</clipPath>
	<g style="clip-path:url(#SVGID_00000064352623207841272510000013108287279476325038_);">
		<rect x="105.8" y="65.9" class="st0" width="968.7" height="318.2"/>
		<line class="st3" x1="125.2" y1="311" x2="130.8" y2="311"/>
		<line class="st3" x1="128" y1="311" x2="128" y2="369.7"/>
		<line class="st3" x1="125.2" y1="369.7" x2="130.8" y2="369.7"/>
		<line class="st3" x1="162.2" y1="277.6" x2="167.8" y2="277.6"/>
		<line class="st3" x1="165" y1="277.6" x2="165" y2="369.7"/>
		<line class="st3" x1="162.2" y1="369.7" x2="167.8" y2="369.7"/>
		<line class="st3" x1="199.2" y1="207.2" x2="204.7" y2="207.2"/>
		<line class="st3" x1="202" y1="207.2" x2="202" y2="369.7"/>
		<line class="st3" x1="199.2" y1="369.7" x2="204.7" y2="369.7"/>
		<line class="st3" x1="236.2" y1="222.8" x2="241.7" y2="222.8"/>
		<line class="st3" x1="238.9" y1="222.8" x2="238.9" y2="369.7"/>
		<line class="st3" x1="236.2" y1="369.7" x2="241.7" y2="369.7"/>
		<line class="st3" x1="273.1" y1="256.1" x2="278.7" y2="256.1"/>
		<line class="st3" x1="275.9" y1="256.1" x2="275.9" y2="369.7"/>
		<line class="st3" x1="273.1" y1="369.7" x2="278.7" y2="369.7"/>
		<line class="st3" x1="310.1" y1="227.1" x2="315.7" y2="227.1"/>
		<line class="st3" x1="312.9" y1="227.1" x2="312.9" y2="369.7"/>
		<line class="st3" x1="310.1" y1="369.7" x2="315.7" y2="369.7"/>
		<line class="st3" x1="347.1" y1="172.8" x2="352.6" y2="172.8"/>
		<line class="st3" x1="349.9" y1="172.8" x2="349.9" y2="369.7"/>
		<line class="st3" x1="347.1" y1="369.7" x2="352.6" y2="369.7"/>
		<line class="st3" x1="384.1" y1="256.1" x2="389.6" y2="256.1"/>
		<line class="st3" x1="386.8" y1="256.1" x2="386.8" y2="369.7"/>
		<line class="st3" x1="384.1" y1="369.7" x2="389.6" y2="369.7"/>
		<line class="st3" x1="421" y1="209" x2="426.6" y2="209"/>
		<line class="st3" x1="423.8" y1="209" x2="423.8" y2="369.7"/>
		<line class="st3" x1="421" y1="369.7" x2="426.6" y2="369.7"/>
		<line class="st3" x1="458" y1="209" x2="463.5" y2="209"/>
		<line class="st3" x1="460.8" y1="209" x2="460.8" y2="369.7"/>
		<line class="st3" x1="458" y1="369.7" x2="463.5" y2="369.7"/>
		<line class="st3" x1="495" y1="216.2" x2="500.5" y2="216.2"/>
		<line class="st3" x1="497.8" y1="216.2" x2="497.8" y2="369.7"/>
		<line class="st3" x1="495" y1="369.7" x2="500.5" y2="369.7"/>
		<line class="st3" x1="532" y1="256.1" x2="537.5" y2="256.1"/>
		<line class="st3" x1="534.7" y1="256.1" x2="534.7" y2="369.7"/>
		<line class="st3" x1="532" y1="369.7" x2="537.5" y2="369.7"/>
		<line class="st3" x1="568.9" y1="99.5" x2="574.5" y2="99.5"/>
		<line class="st3" x1="571.7" y1="99.5" x2="571.7" y2="369.7"/>
		<line class="st3" x1="568.9" y1="369.7" x2="574.5" y2="369.7"/>
		<line class="st3" x1="605.9" y1="178.2" x2="611.4" y2="178.2"/>
		<line class="st3" x1="608.7" y1="178.2" x2="608.7" y2="369.7"/>
		<line class="st3" x1="605.9" y1="369.7" x2="611.4" y2="369.7"/>
		<line class="st3" x1="642.9" y1="246" x2="648.4" y2="246"/>
		<line class="st3" x1="645.6" y1="246" x2="645.6" y2="369.7"/>
		<line class="st3" x1="642.9" y1="369.7" x2="648.4" y2="369.7"/>
		<line class="st3" x1="679.8" y1="246" x2="685.4" y2="246"/>
		<line class="st3" x1="682.6" y1="246" x2="682.6" y2="369.7"/>
		<line class="st3" x1="679.8" y1="369.7" x2="685.4" y2="369.7"/>
		<line class="st3" x1="716.8" y1="201.2" x2="722.4" y2="201.2"/>
		<line class="st3" x1="719.6" y1="201.2" x2="719.6" y2="369.7"/>
		<line class="st3" x1="716.8" y1="369.7" x2="722.4" y2="369.7"/>
		<line class="st3" x1="753.8" y1="190.5" x2="759.3" y2="190.5"/>
		<line class="st3" x1="756.6" y1="190.5" x2="756.6" y2="369.7"/>
		<line class="st3" x1="753.8" y1="369.7" x2="759.3" y2="369.7"/>
		<line class="st3" x1="790.8" y1="164.2" x2="796.3" y2="164.2"/>
		<line class="st3" x1="793.5" y1="164.2" x2="793.5" y2="369.7"/>
		<line class="st3" x1="790.8" y1="369.7" x2="796.3" y2="369.7"/>
		<line class="st3" x1="827.7" y1="178.2" x2="833.3" y2="178.2"/>
		<line class="st3" x1="830.5" y1="178.2" x2="830.5" y2="369.7"/>
		<line class="st3" x1="827.7" y1="369.7" x2="833.3" y2="369.7"/>
		<line class="st3" x1="864.7" y1="239.7" x2="870.2" y2="239.7"/>
		<line class="st3" x1="867.5" y1="239.7" x2="867.5" y2="369.7"/>
		<line class="st3" x1="864.7" y1="369.7" x2="870.2" y2="369.7"/>
		<line class="st3" x1="901.7" y1="179.9" x2="907.2" y2="179.9"/>
		<line class="st3" x1="904.5" y1="179.9" x2="904.5" y2="369.7"/>
		<line class="st3" x1="901.7" y1="369.7" x2="907.2" y2="369.7"/>
		<line class="st3" x1="938.7" y1="81.3" x2="944.2" y2="81.3"/>
		<line class="st3" x1="941.4" y1="81.3" x2="941.4" y2="369.7"/>
		<line class="st3" x1="938.7" y1="369.7" x2="944.2" y2="369.7"/>
		<line class="st3" x1="975.6" y1="295.4" x2="981.2" y2="295.4"/>
		<line class="st3" x1="978.4" y1="295.4" x2="978.4" y2="369.7"/>
		<line class="st3" x1="975.6" y1="369.7" x2="981.2" y2="369.7"/>
		<line class="st3" x1="1012.6" y1="295.4" x2="1018.1" y2="295.4"/>
		<line class="st3" x1="1015.4" y1="295.4" x2="1015.4" y2="369.7"/>
		<line class="st3" x1="1012.6" y1="369.7" x2="1018.1" y2="369.7"/>
		<line class="st3" x1="1049.6" y1="266.9" x2="1055.1" y2="266.9"/>
		<line class="st3" x1="1052.3" y1="266.9" x2="1052.3" y2="369.7"/>
		<line class="st3" x1="1049.6" y1="369.7" x2="1055.1" y2="369.7"/>
		<circle class="st4" cx="128" cy="369.7" r="6.8"/>
		<circle class="st4" cx="165" cy="369.7" r="6.8"/>
		<circle class="st5" cx="202" cy="309.8" r="6.8"/>
		<circle class="st4" cx="238.9" cy="369.7" r="6.8"/>
		<circle class="st4" cx="275.9" cy="369.7" r="6.8"/>
		<circle class="st4" cx="312.9" cy="369.7" r="6.8"/>
		<circle class="st5" cx="349.9" cy="361" r="6.8"/>
		<circle class="st4" cx="386.8" cy="369.7" r="6.8"/>
		<circle class="st4" cx="423.8" cy="369.7" r="6.8"/>
		<circle class="st4" cx="460.8" cy="369.7" r="6.8"/>
		<circle class="st4" cx="497.8" cy="369.7" r="6.8"/>
		<circle class="st4" cx="534.7" cy="369.7" r="6.8"/>
		<circle class="st5" cx="571.7" cy="337" r="6.8"/>
		<circle class="st4" cx="608.7" cy="369.7" r="6.8"/>
		<circle class="st4" cx="645.6" cy="369.7" r="6.8"/>
		<circle class="st4" cx="682.6" cy="369.7" r="6.8"/>
		<circle class="st4" cx="719.6" cy="369.7" r="6.8"/>
		<circle class="st4" cx="756.6" cy="369.7" r="6.8"/>
		<circle class="st4" cx="793.5" cy="369.7" r="6.8"/>
		<circle class="st4" cx="830.5" cy="369.7" r="6.8"/>
		<circle class="st4" cx="867.5" cy="369.7" r="6.8"/>
		<circle class="st5" cx="904.5" cy="303.4" r="6.8"/>
		<circle class="st5" cx="941.4" cy="264" r="6.8"/>
		<circle class="st4" cx="978.4" cy="369.7" r="6.8"/>
		<circle class="st4" cx="1015.4" cy="369.7" r="6.8"/>
		<circle class="st5" cx="1052.3" cy="358.7" r="6.8"/>
		<line class="st6" x1="105.8" y1="369.7" x2="1074.5" y2="369.7"/>
		<line class="st7" x1="849" y1="384.1" x2="849" y2="65.9"/>
	</g>
</g>
<g>
	<defs>
		<rect id="SVGID_00000179627850122963584820000016936012071657348256_" width="1080" height="864"/>
	</defs>
	<clipPath id="SVGID_00000112613700238026818660000016479314806108424344_">
		<use xlink:href="#SVGID_00000179627850122963584820000016936012071657348256_"  style="overflow:visible;"/>
	</clipPath>
	<g style="clip-path:url(#SVGID_00000112613700238026818660000016479314806108424344_);">
		<line class="st6" x1="105.8" y1="384.1" x2="105.8" y2="65.9"/>
		<rect x="92" y="361.7" class="st9" width="8.9" height="18.9"/>
		<text transform="matrix(1 0 0 1 92.0117 375.3999)" class="st10 st11 st12">0</text>
		<rect x="83.1" y="268.6" class="st9" width="17.8" height="18.9"/>
		<text transform="matrix(1 0 0 1 83.1133 282.3799)" class="st10 st11 st12">10</text>
		<rect x="83.1" y="175.6" class="st9" width="17.8" height="18.9"/>
		<text transform="matrix(1 0 0 1 83.1133 189.3599)" class="st10 st11 st12">20</text>
		<rect x="83.1" y="82.6" class="st9" width="17.8" height="18.9"/>
		<text transform="matrix(1 0 0 1 83.1133 96.3501)" class="st10 st11 st12">30</text>
		<line class="st13" x1="103.1" y1="369.7" x2="105.8" y2="369.7"/>
		<line class="st13" x1="103.1" y1="276.7" x2="105.8" y2="276.7"/>
		<line class="st13" x1="103.1" y1="183.6" x2="105.8" y2="183.6"/>
		<line class="st13" x1="103.1" y1="90.6" x2="105.8" y2="90.6"/>
		<line class="st6" x1="105.8" y1="384.1" x2="1074.5" y2="384.1"/>
		<line class="st13" x1="128" y1="386.9" x2="128" y2="384.1"/>
		<line class="st13" x1="165" y1="386.9" x2="165" y2="384.1"/>
		<line class="st13" x1="202" y1="386.9" x2="202" y2="384.1"/>
		<line class="st13" x1="238.9" y1="386.9" x2="238.9" y2="384.1"/>
		<line class="st13" x1="275.9" y1="386.9" x2="275.9" y2="384.1"/>
		<line class="st13" x1="312.9" y1="386.9" x2="312.9" y2="384.1"/>
		<line class="st13" x1="349.9" y1="386.9" x2="349.9" y2="384.1"/>
		<line class="st13" x1="386.8" y1="386.9" x2="386.8" y2="384.1"/>
		<line class="st13" x1="423.8" y1="386.9" x2="423.8" y2="384.1"/>
		<line class="st13" x1="460.8" y1="386.9" x2="460.8" y2="384.1"/>
		<line class="st13" x1="497.8" y1="386.9" x2="497.8" y2="384.1"/>
		<line class="st13" x1="534.7" y1="386.9" x2="534.7" y2="384.1"/>
		<line class="st13" x1="571.7" y1="386.9" x2="571.7" y2="384.1"/>
		<line class="st13" x1="608.7" y1="386.9" x2="608.7" y2="384.1"/>
		<line class="st13" x1="645.6" y1="386.9" x2="645.6" y2="384.1"/>
		<line class="st13" x1="682.6" y1="386.9" x2="682.6" y2="384.1"/>
		<line class="st13" x1="719.6" y1="386.9" x2="719.6" y2="384.1"/>
		<line class="st13" x1="756.6" y1="386.9" x2="756.6" y2="384.1"/>
		<line class="st13" x1="793.5" y1="386.9" x2="793.5" y2="384.1"/>
		<line class="st13" x1="830.5" y1="386.9" x2="830.5" y2="384.1"/>
		<line class="st13" x1="867.5" y1="386.9" x2="867.5" y2="384.1"/>
		<line class="st13" x1="904.5" y1="386.9" x2="904.5" y2="384.1"/>
		<line class="st13" x1="941.4" y1="386.9" x2="941.4" y2="384.1"/>
		<line class="st13" x1="978.4" y1="386.9" x2="978.4" y2="384.1"/>
		<line class="st13" x1="1015.4" y1="386.9" x2="1015.4" y2="384.1"/>
		<line class="st13" x1="1052.3" y1="386.9" x2="1052.3" y2="384.1"/>
		<g class="st14">
			<path class="st10" d="M112.8,400.5v-11.5h4.3c0.9,0,1.6,0.1,2.1,0.3c0.5,0.2,0.9,0.6,1.2,1.1c0.3,0.5,0.4,1,0.4,1.5
				c0,0.5-0.1,1-0.4,1.4c-0.3,0.4-0.7,0.8-1.2,1c0.7,0.2,1.2,0.5,1.6,1c0.4,0.5,0.6,1.1,0.6,1.7c0,0.5-0.1,1-0.3,1.5
				s-0.5,0.8-0.8,1.1c-0.3,0.2-0.8,0.4-1.3,0.6c-0.5,0.1-1.1,0.2-1.8,0.2H112.8z M114.3,393.9h2.5c0.7,0,1.2,0,1.4-0.1
				c0.4-0.1,0.7-0.3,0.9-0.6s0.3-0.6,0.3-1c0-0.4-0.1-0.7-0.3-1c-0.2-0.3-0.4-0.5-0.8-0.6c-0.3-0.1-0.9-0.2-1.7-0.2h-2.3V393.9z
				 M114.3,399.2h2.9c0.5,0,0.8,0,1-0.1c0.3-0.1,0.6-0.2,0.9-0.3c0.2-0.1,0.4-0.4,0.6-0.6c0.2-0.3,0.2-0.6,0.2-1
				c0-0.4-0.1-0.8-0.3-1.1c-0.2-0.3-0.5-0.5-0.9-0.7c-0.4-0.1-0.9-0.2-1.7-0.2h-2.6V399.2z"/>
			<path class="st10" d="M123.4,400.5v-11.5h2.3l2.7,8.1c0.2,0.8,0.4,1.3,0.5,1.7c0.1-0.4,0.3-1,0.6-1.8l2.7-8h2v11.5h-1.5v-9.6
				l-3.3,9.6h-1.4l-3.3-9.8v9.8H123.4z"/>
			<path class="st10" d="M141.5,400.5h-1.4v-9c-0.3,0.3-0.8,0.6-1.3,1c-0.5,0.3-1,0.6-1.5,0.7v-1.4c0.8-0.4,1.5-0.8,2.1-1.3
				c0.6-0.5,1-1,1.2-1.5h0.9V400.5z"/>
		</g>
		<g class="st14">
			<path class="st10" d="M149.7,400.5v-11.5h4.3c0.9,0,1.6,0.1,2.1,0.3c0.5,0.2,0.9,0.6,1.2,1.1c0.3,0.5,0.4,1,0.4,1.5
				c0,0.5-0.1,1-0.4,1.4c-0.3,0.4-0.7,0.8-1.2,1c0.7,0.2,1.2,0.5,1.6,1c0.4,0.5,0.6,1.1,0.6,1.7c0,0.5-0.1,1-0.3,1.5
				s-0.5,0.8-0.8,1.1c-0.3,0.2-0.8,0.4-1.3,0.6c-0.5,0.1-1.1,0.2-1.8,0.2H149.7z M151.2,393.9h2.5c0.7,0,1.2,0,1.4-0.1
				c0.4-0.1,0.7-0.3,0.9-0.6s0.3-0.6,0.3-1c0-0.4-0.1-0.7-0.3-1c-0.2-0.3-0.4-0.5-0.8-0.6c-0.3-0.1-0.9-0.2-1.7-0.2h-2.3V393.9z
				 M151.2,399.2h2.9c0.5,0,0.8,0,1-0.1c0.3-0.1,0.6-0.2,0.9-0.3c0.2-0.1,0.4-0.4,0.6-0.6c0.2-0.3,0.2-0.6,0.2-1
				c0-0.4-0.1-0.8-0.3-1.1c-0.2-0.3-0.5-0.5-0.9-0.7c-0.4-0.1-0.9-0.2-1.7-0.2h-2.6V399.2z"/>
			<path class="st10" d="M160.4,400.5v-11.5h2.3l2.7,8.1c0.2,0.8,0.4,1.3,0.5,1.7c0.1-0.4,0.3-1,0.6-1.8l2.7-8h2v11.5h-1.5v-9.6
				l-3.3,9.6h-1.4l-3.3-9.8v9.8H160.4z"/>
			<path class="st10" d="M180.6,399.2v1.4H173c0-0.3,0-0.7,0.2-1c0.2-0.5,0.5-1,0.9-1.5c0.4-0.5,1-1.1,1.8-1.7
				c1.2-1,2.1-1.8,2.5-2.4c0.4-0.6,0.7-1.2,0.7-1.7c0-0.6-0.2-1-0.6-1.4s-0.9-0.6-1.6-0.6c-0.7,0-1.2,0.2-1.6,0.6s-0.6,1-0.6,1.7
				l-1.4-0.1c0.1-1.1,0.5-1.9,1.1-2.5c0.6-0.6,1.5-0.8,2.6-0.8c1.1,0,2,0.3,2.6,0.9s1,1.4,1,2.3c0,0.5-0.1,0.9-0.3,1.4
				c-0.2,0.4-0.5,0.9-0.9,1.4c-0.4,0.5-1.2,1.2-2.2,2c-0.8,0.7-1.4,1.2-1.6,1.4c-0.2,0.3-0.4,0.5-0.6,0.8H180.6z"/>
		</g>
		<g class="st14">
			<path class="st10" d="M186.7,400.5v-11.5h4.3c0.9,0,1.6,0.1,2.1,0.3c0.5,0.2,0.9,0.6,1.2,1.1c0.3,0.5,0.4,1,0.4,1.5
				c0,0.5-0.1,1-0.4,1.4c-0.3,0.4-0.7,0.8-1.2,1c0.7,0.2,1.2,0.5,1.6,1c0.4,0.5,0.6,1.1,0.6,1.7c0,0.5-0.1,1-0.3,1.5
				s-0.5,0.8-0.8,1.1c-0.3,0.2-0.8,0.4-1.3,0.6c-0.5,0.1-1.1,0.2-1.8,0.2H186.7z M188.2,393.9h2.5c0.7,0,1.2,0,1.4-0.1
				c0.4-0.1,0.7-0.3,0.9-0.6s0.3-0.6,0.3-1c0-0.4-0.1-0.7-0.3-1c-0.2-0.3-0.4-0.5-0.8-0.6c-0.3-0.1-0.9-0.2-1.7-0.2h-2.3V393.9z
				 M188.2,399.2h2.9c0.5,0,0.8,0,1-0.1c0.3-0.1,0.6-0.2,0.9-0.3c0.2-0.1,0.4-0.4,0.6-0.6c0.2-0.3,0.2-0.6,0.2-1
				c0-0.4-0.1-0.8-0.3-1.1c-0.2-0.3-0.5-0.5-0.9-0.7c-0.4-0.1-0.9-0.2-1.7-0.2h-2.6V399.2z"/>
			<path class="st10" d="M197.4,400.5v-11.5h2.3l2.7,8.1c0.2,0.8,0.4,1.3,0.5,1.7c0.1-0.4,0.3-1,0.6-1.8l2.7-8h2v11.5h-1.5v-9.6
				l-3.3,9.6h-1.4l-3.3-9.8v9.8H197.4z"/>
			<path class="st10" d="M210.2,397.5l1.4-0.2c0.2,0.8,0.4,1.4,0.8,1.7c0.4,0.4,0.9,0.5,1.4,0.5c0.7,0,1.2-0.2,1.7-0.7
				c0.5-0.5,0.7-1,0.7-1.7c0-0.6-0.2-1.2-0.6-1.6c-0.4-0.4-1-0.6-1.6-0.6c-0.3,0-0.6,0.1-1,0.2l0.2-1.2c0.1,0,0.2,0,0.2,0
				c0.6,0,1.1-0.2,1.6-0.5c0.5-0.3,0.7-0.8,0.7-1.4c0-0.5-0.2-0.9-0.5-1.3c-0.3-0.3-0.8-0.5-1.4-0.5c-0.5,0-1,0.2-1.4,0.5
				c-0.4,0.3-0.6,0.9-0.7,1.5l-1.4-0.2c0.2-0.9,0.6-1.7,1.2-2.2c0.6-0.5,1.4-0.8,2.3-0.8c0.6,0,1.2,0.1,1.7,0.4
				c0.5,0.3,0.9,0.6,1.2,1.1c0.3,0.5,0.4,1,0.4,1.5c0,0.5-0.1,0.9-0.4,1.4s-0.7,0.7-1.2,1c0.7,0.2,1.2,0.5,1.6,1s0.6,1.1,0.6,1.8
				c0,1-0.4,1.8-1.1,2.5c-0.7,0.7-1.7,1-2.8,1c-1,0-1.8-0.3-2.5-0.9C210.7,399.2,210.3,398.5,210.2,397.5z"/>
		</g>
		<rect x="228.7" y="386.8" class="st9" width="20.5" height="18.9"/>
		<text transform="matrix(1 0 0 1 228.7134 400.5298)" class="st10 st11 st12">C2</text>
		<rect x="265.7" y="386.8" class="st9" width="20.5" height="18.9"/>
		<text transform="matrix(1 0 0 1 265.6934 400.5298)" class="st10 st11 st12">C3</text>
		<text transform="matrix(1 0 0 1 303.5541 400.53)" class="st10 st11 st12">F1</text>
		<text transform="matrix(1 0 0 1 340.524 400.53)" class="st10 st11 st12">F2</text>
		<text transform="matrix(1 0 0 1 377.494 400.53)" class="st10 st11 st12">F4</text>
		<text transform="matrix(1 0 0 1 414.4741 400.53)" class="st10 st11 st12">F5</text>
		<text transform="matrix(1 0 0 1 451.4441 400.53)" class="st10 st11 st12">F6</text>
		<text transform="matrix(1 0 0 1 488.4141 400.53)" class="st10 st11 st12">F7</text>
		<text transform="matrix(1 0 0 1 525.384 400.53)" class="st10 st11 st12">F8</text>
		<rect x="561.5" y="386.8" class="st9" width="20.5" height="18.9"/>
		<text transform="matrix(1 0 0 1 561.4634 400.5298)" class="st10 st11 st12">H3</text>
		<rect x="598.4" y="386.8" class="st9" width="20.5" height="18.9"/>
		<text transform="matrix(1 0 0 1 598.4434 400.5298)" class="st10 st11 st12">H4</text>
		<text transform="matrix(1 0 0 1 636.3041 400.53)" class="st10 st11 st12">Z1</text>
		<text transform="matrix(1 0 0 1 673.274 400.53)" class="st10 st11 st12">Z2</text>
		<text transform="matrix(1 0 0 1 710.2441 400.53)" class="st10 st11 st12">Z3</text>
		<text transform="matrix(1 0 0 1 747.2241 400.53)" class="st10 st11 st12">Z4</text>
		<text transform="matrix(1 0 0 1 784.1941 400.53)" class="st10 st11 st12">Z5</text>
		<text transform="matrix(1 0 0 1 821.1641 400.53)" class="st10 st11 st12">Z6</text>
		<g class="st14">
			<path class="st10" d="M853.1,400.5v-11.5h4.3c0.9,0,1.6,0.1,2.1,0.3c0.5,0.2,0.9,0.6,1.2,1.1c0.3,0.5,0.4,1,0.4,1.5
				c0,0.5-0.1,1-0.4,1.4c-0.3,0.4-0.7,0.8-1.2,1c0.7,0.2,1.2,0.5,1.6,1c0.4,0.5,0.6,1.1,0.6,1.7c0,0.5-0.1,1-0.3,1.5
				s-0.5,0.8-0.8,1.1s-0.8,0.4-1.3,0.6c-0.5,0.1-1.1,0.2-1.8,0.2H853.1z M854.6,393.9h2.5c0.7,0,1.2,0,1.4-0.1
				c0.4-0.1,0.7-0.3,0.9-0.6s0.3-0.6,0.3-1c0-0.4-0.1-0.7-0.3-1s-0.4-0.5-0.8-0.6c-0.3-0.1-0.9-0.2-1.7-0.2h-2.3V393.9z
				 M854.6,399.2h2.9c0.5,0,0.8,0,1-0.1c0.3-0.1,0.6-0.2,0.9-0.3c0.2-0.1,0.4-0.4,0.6-0.6c0.2-0.3,0.2-0.6,0.2-1
				c0-0.4-0.1-0.8-0.3-1.1c-0.2-0.3-0.5-0.5-0.9-0.7c-0.4-0.1-0.9-0.2-1.7-0.2h-2.6V399.2z"/>
			<path class="st10" d="M863.9,400.5v-11.5h1.5v4.7h6v-4.7h1.5v11.5h-1.5v-5.4h-6v5.4H863.9z"/>
			<path class="st10" d="M880.1,400.5h-1.4v-9c-0.3,0.3-0.8,0.6-1.3,1c-0.5,0.3-1,0.6-1.5,0.7v-1.4c0.8-0.4,1.5-0.8,2.1-1.3
				c0.6-0.5,1-1,1.2-1.5h0.9V400.5z"/>
		</g>
		<text transform="matrix(1 0 0 1 894.6648 400.53)" class="st10 st11 st12">S1</text>
		<text transform="matrix(1 0 0 1 931.6348 400.53)" class="st10 st11 st12">S2</text>
		<g class="st14">
			<path class="st10" d="M964,396.9l1.4-0.1c0.1,0.6,0.2,1,0.5,1.4s0.6,0.7,1.2,0.9s1.1,0.3,1.8,0.3c0.6,0,1.1-0.1,1.5-0.3
				s0.8-0.4,1-0.7s0.3-0.6,0.3-1c0-0.4-0.1-0.7-0.3-0.9s-0.6-0.5-1-0.7c-0.3-0.1-1-0.3-2-0.6s-1.8-0.5-2.2-0.7
				c-0.5-0.3-1-0.6-1.2-1.1s-0.4-0.9-0.4-1.4c0-0.6,0.2-1.1,0.5-1.6s0.8-0.9,1.4-1.1s1.3-0.4,2.1-0.4c0.8,0,1.6,0.1,2.2,0.4
				s1.1,0.7,1.5,1.2s0.5,1.1,0.6,1.8l-1.5,0.1c-0.1-0.7-0.3-1.3-0.8-1.6s-1.1-0.6-2-0.6c-0.9,0-1.6,0.2-2,0.5s-0.6,0.7-0.6,1.2
				c0,0.4,0.1,0.8,0.4,1c0.3,0.3,1.1,0.5,2.3,0.8s2.1,0.5,2.5,0.7c0.7,0.3,1.2,0.7,1.5,1.2s0.5,1,0.5,1.6c0,0.6-0.2,1.2-0.5,1.7
				s-0.9,1-1.5,1.3s-1.4,0.4-2.2,0.4c-1,0-1.9-0.2-2.6-0.5s-1.2-0.8-1.6-1.4S964,397.6,964,396.9z"/>
			<path class="st10" d="M978.4,400.5l-4.4-11.5h1.6l3,8.3c0.2,0.7,0.4,1.3,0.6,1.9c0.2-0.6,0.4-1.2,0.6-1.9l3.1-8.3h1.5l-4.5,11.5
				H978.4z"/>
			<path class="st10" d="M985.3,397.5l1.4-0.2c0.2,0.8,0.4,1.4,0.8,1.7s0.9,0.5,1.4,0.5c0.7,0,1.2-0.2,1.7-0.7s0.7-1,0.7-1.7
				c0-0.6-0.2-1.2-0.6-1.6s-1-0.6-1.6-0.6c-0.3,0-0.6,0.1-1,0.2l0.2-1.2c0.1,0,0.2,0,0.2,0c0.6,0,1.1-0.2,1.6-0.5s0.7-0.8,0.7-1.4
				c0-0.5-0.2-0.9-0.5-1.3s-0.8-0.5-1.4-0.5c-0.5,0-1,0.2-1.4,0.5s-0.6,0.9-0.7,1.5l-1.4-0.2c0.2-0.9,0.6-1.7,1.2-2.2
				s1.4-0.8,2.3-0.8c0.6,0,1.2,0.1,1.7,0.4s0.9,0.6,1.2,1.1s0.4,1,0.4,1.5c0,0.5-0.1,0.9-0.4,1.4s-0.7,0.7-1.2,1
				c0.7,0.2,1.2,0.5,1.6,1s0.6,1.1,0.6,1.8c0,1-0.4,1.8-1.1,2.5s-1.7,1-2.8,1c-1,0-1.8-0.3-2.5-0.9S985.4,398.5,985.3,397.5z"/>
		</g>
		<g class="st14">
			<path class="st10" d="M1001,396.9l1.4-0.1c0.1,0.6,0.2,1,0.5,1.4c0.2,0.4,0.6,0.7,1.2,0.9c0.5,0.2,1.1,0.3,1.8,0.3
				c0.6,0,1.1-0.1,1.5-0.3c0.4-0.2,0.8-0.4,1-0.7c0.2-0.3,0.3-0.6,0.3-1c0-0.4-0.1-0.7-0.3-0.9c-0.2-0.3-0.6-0.5-1-0.7
				c-0.3-0.1-1-0.3-2-0.6c-1.1-0.3-1.8-0.5-2.2-0.7c-0.5-0.3-1-0.6-1.2-1.1c-0.3-0.4-0.4-0.9-0.4-1.4c0-0.6,0.2-1.1,0.5-1.6
				s0.8-0.9,1.4-1.1c0.6-0.3,1.3-0.4,2.1-0.4c0.8,0,1.6,0.1,2.2,0.4s1.1,0.7,1.5,1.2c0.3,0.5,0.5,1.1,0.6,1.8l-1.5,0.1
				c-0.1-0.7-0.3-1.3-0.8-1.6c-0.5-0.4-1.1-0.6-2-0.6c-0.9,0-1.6,0.2-2,0.5c-0.4,0.3-0.6,0.7-0.6,1.2c0,0.4,0.1,0.8,0.4,1
				c0.3,0.3,1.1,0.5,2.3,0.8c1.2,0.3,2.1,0.5,2.5,0.7c0.7,0.3,1.2,0.7,1.5,1.2c0.3,0.5,0.5,1,0.5,1.6c0,0.6-0.2,1.2-0.5,1.7
				c-0.3,0.5-0.9,1-1.5,1.3c-0.7,0.3-1.4,0.4-2.2,0.4c-1,0-1.9-0.2-2.6-0.5c-0.7-0.3-1.2-0.8-1.6-1.4S1001,397.6,1001,396.9z"/>
			<path class="st10" d="M1015.4,400.5l-4.4-11.5h1.6l3,8.3c0.2,0.7,0.4,1.3,0.6,1.9c0.2-0.6,0.4-1.2,0.6-1.9l3.1-8.3h1.5l-4.5,11.5
				H1015.4z"/>
			<path class="st10" d="M1026.8,400.5v-2.7h-5v-1.3l5.2-7.4h1.1v7.4h1.5v1.3h-1.5v2.7H1026.8z M1026.8,396.5v-5.2l-3.6,5.2H1026.8z
				"/>
		</g>
		<g class="st14">
			<path class="st10" d="M1037.9,396.9l1.4-0.1c0.1,0.6,0.2,1,0.5,1.4s0.6,0.7,1.2,0.9s1.1,0.3,1.8,0.3c0.6,0,1.1-0.1,1.5-0.3
				s0.8-0.4,1-0.7s0.3-0.6,0.3-1c0-0.4-0.1-0.7-0.3-0.9s-0.6-0.5-1-0.7c-0.3-0.1-1-0.3-2-0.6s-1.8-0.5-2.2-0.7
				c-0.5-0.3-1-0.6-1.2-1.1s-0.4-0.9-0.4-1.4c0-0.6,0.2-1.1,0.5-1.6s0.8-0.9,1.4-1.1s1.3-0.4,2.1-0.4c0.8,0,1.6,0.1,2.2,0.4
				s1.1,0.7,1.5,1.2s0.5,1.1,0.6,1.8l-1.5,0.1c-0.1-0.7-0.3-1.3-0.8-1.6s-1.1-0.6-2-0.6c-0.9,0-1.6,0.2-2,0.5s-0.6,0.7-0.6,1.2
				c0,0.4,0.1,0.8,0.4,1c0.3,0.3,1.1,0.5,2.3,0.8s2.1,0.5,2.5,0.7c0.7,0.3,1.2,0.7,1.5,1.2s0.5,1,0.5,1.6c0,0.6-0.2,1.2-0.5,1.7
				s-0.9,1-1.5,1.3s-1.4,0.4-2.2,0.4c-1,0-1.9-0.2-2.6-0.5s-1.2-0.8-1.6-1.4S1038,397.6,1037.9,396.9z"/>
			<path class="st10" d="M1052.4,400.5l-4.4-11.5h1.6l3,8.3c0.2,0.7,0.4,1.3,0.6,1.9c0.2-0.6,0.4-1.2,0.6-1.9l3.1-8.3h1.5l-4.5,11.5
				H1052.4z"/>
			<path class="st10" d="M1059.2,397.5l1.5-0.1c0.1,0.7,0.4,1.3,0.8,1.6s0.9,0.5,1.4,0.5c0.7,0,1.2-0.3,1.7-0.8s0.7-1.2,0.7-2
				c0-0.8-0.2-1.4-0.7-1.9s-1-0.7-1.8-0.7c-0.5,0-0.9,0.1-1.2,0.3s-0.7,0.5-0.9,0.8l-1.3-0.2l1.1-5.9h5.7v1.3h-4.6l-0.6,3.1
				c0.7-0.5,1.4-0.7,2.2-0.7c1,0,1.8,0.3,2.5,1s1,1.6,1,2.7c0,1-0.3,1.9-0.9,2.7c-0.7,0.9-1.7,1.4-3,1.4c-1,0-1.9-0.3-2.6-0.9
				S1059.3,398.5,1059.2,397.5z"/>
		</g>
		<g class="st14">
			<path d="M536.3,422v-15.7h11.4v1.9h-9.3v4.8h8.7v1.8h-8.7v5.4h9.7v1.9H536.3z"/>
			<path d="M549.4,422l4.2-5.9l-3.9-5.5h2.4l1.8,2.7c0.3,0.5,0.6,0.9,0.8,1.3c0.3-0.5,0.6-0.9,0.9-1.3l1.9-2.7h2.3l-3.9,5.4l4.2,6
				h-2.4l-2.3-3.5l-0.6-1l-3,4.5H549.4z"/>
			<path d="M561.7,426.4v-15.8h1.8v1.5c0.4-0.6,0.9-1,1.4-1.3c0.5-0.3,1.2-0.4,1.9-0.4c1,0,1.8,0.3,2.6,0.8c0.7,0.5,1.3,1.2,1.7,2.1
				c0.4,0.9,0.6,1.9,0.6,3c0,1.2-0.2,2.2-0.6,3.2s-1,1.7-1.8,2.1c-0.8,0.5-1.6,0.7-2.5,0.7c-0.6,0-1.2-0.1-1.7-0.4
				c-0.5-0.3-0.9-0.6-1.3-1v5.6H561.7z M563.4,416.4c0,1.5,0.3,2.6,0.9,3.3c0.6,0.7,1.3,1.1,2.2,1.1c0.9,0,1.6-0.4,2.2-1.1
				c0.6-0.7,0.9-1.9,0.9-3.4c0-1.5-0.3-2.5-0.9-3.3c-0.6-0.7-1.3-1.1-2.1-1.1c-0.8,0-1.6,0.4-2.2,1.2
				C563.7,413.8,563.4,414.9,563.4,416.4z"/>
			<path d="M581.7,418.3l2,0.2c-0.3,1.2-0.9,2.1-1.8,2.7c-0.9,0.6-1.9,1-3.3,1c-1.7,0-3-0.5-4-1.5c-1-1-1.5-2.5-1.5-4.3
				c0-1.9,0.5-3.4,1.5-4.5c1-1.1,2.3-1.6,3.8-1.6c1.5,0,2.8,0.5,3.7,1.6c1,1,1.4,2.5,1.4,4.4c0,0.1,0,0.3,0,0.5h-8.5
				c0.1,1.3,0.4,2.2,1.1,2.9c0.6,0.7,1.4,1,2.4,1c0.7,0,1.3-0.2,1.8-0.6C581,419.8,581.4,419.2,581.7,418.3z M575.4,415.2h6.4
				c-0.1-1-0.3-1.7-0.7-2.2c-0.6-0.7-1.4-1.1-2.4-1.1c-0.9,0-1.6,0.3-2.2,0.9C575.8,413.4,575.4,414.2,575.4,415.2z"/>
			<path d="M586.1,422v-11.4h1.7v1.7c0.4-0.8,0.9-1.3,1.2-1.6s0.8-0.4,1.2-0.4c0.7,0,1.3,0.2,2,0.6l-0.7,1.8
				c-0.5-0.3-0.9-0.4-1.4-0.4c-0.4,0-0.8,0.1-1.1,0.4c-0.3,0.3-0.6,0.6-0.7,1.1c-0.2,0.7-0.3,1.4-0.3,2.3v6H586.1z"/>
			<path d="M593.5,408.5v-2.2h1.9v2.2H593.5z M593.5,422v-11.4h1.9V422H593.5z"/>
			<path d="M598.4,422v-11.4h1.7v1.6c0.4-0.6,0.8-1,1.4-1.3c0.6-0.3,1.3-0.5,2-0.5c0.8,0,1.5,0.2,2.1,0.5c0.5,0.4,0.9,0.8,1.1,1.5
				c0.9-1.3,2.1-2,3.5-2c1.1,0,2,0.3,2.6,0.9c0.6,0.6,0.9,1.6,0.9,2.9v7.8h-1.9v-7.2c0-0.8-0.1-1.3-0.2-1.7
				c-0.1-0.3-0.4-0.6-0.7-0.8c-0.3-0.2-0.7-0.3-1.2-0.3c-0.8,0-1.5,0.3-2,0.8c-0.5,0.5-0.8,1.4-0.8,2.6v6.6h-1.9v-7.4
				c0-0.9-0.2-1.5-0.5-1.9c-0.3-0.4-0.8-0.6-1.5-0.6c-0.5,0-1,0.1-1.5,0.4c-0.5,0.3-0.8,0.7-1,1.3c-0.2,0.6-0.3,1.3-0.3,2.4v5.9
				H598.4z"/>
			<path d="M624.5,418.3l2,0.2c-0.3,1.2-0.9,2.1-1.8,2.7c-0.9,0.6-1.9,1-3.3,1c-1.7,0-3-0.5-4-1.5c-1-1-1.5-2.5-1.5-4.3
				c0-1.9,0.5-3.4,1.5-4.5c1-1.1,2.3-1.6,3.8-1.6c1.5,0,2.8,0.5,3.7,1.6c1,1,1.4,2.5,1.4,4.4c0,0.1,0,0.3,0,0.5H618
				c0.1,1.3,0.4,2.2,1.1,2.9c0.6,0.7,1.4,1,2.4,1c0.7,0,1.3-0.2,1.8-0.6C623.8,419.8,624.2,419.2,624.5,418.3z M618.1,415.2h6.4
				c-0.1-1-0.3-1.7-0.7-2.2c-0.6-0.7-1.4-1.1-2.4-1.1c-0.9,0-1.6,0.3-2.2,0.9C618.5,413.4,618.2,414.2,618.1,415.2z"/>
			<path d="M628.9,422v-11.4h1.7v1.6c0.8-1.3,2-1.9,3.6-1.9c0.7,0,1.3,0.1,1.9,0.4s1,0.6,1.3,1c0.3,0.4,0.5,0.9,0.6,1.4
				c0.1,0.4,0.1,1,0.1,1.9v7h-1.9v-6.9c0-0.8-0.1-1.4-0.2-1.8c-0.2-0.4-0.4-0.7-0.8-0.9c-0.4-0.2-0.8-0.3-1.3-0.3
				c-0.8,0-1.5,0.3-2.1,0.8c-0.6,0.5-0.9,1.5-0.9,3v6.2H628.9z"/>
			<path d="M645.4,420.3l0.3,1.7c-0.5,0.1-1,0.2-1.5,0.2c-0.7,0-1.2-0.1-1.6-0.3s-0.7-0.5-0.8-0.9c-0.2-0.4-0.2-1.1-0.2-2.3v-6.6
				h-1.4v-1.5h1.4v-2.8l1.9-1.2v4h1.9v1.5h-1.9v6.7c0,0.6,0,0.9,0.1,1.1c0.1,0.2,0.2,0.3,0.3,0.4c0.2,0.1,0.4,0.1,0.7,0.1
				C644.7,420.4,645,420.3,645.4,420.3z"/>
		</g>
		<g class="st14">
			<path d="M37.9,329.1H22.2v-11.4H24v9.3h4.8v-8.7h1.8v8.7h5.4v-9.7h1.9V329.1z"/>
			<path d="M34.5,315.5l-0.3-1.9c0.8-0.1,1.4-0.4,1.8-0.9c0.4-0.5,0.6-1.2,0.6-2.1c0-0.9-0.2-1.5-0.5-2c-0.4-0.4-0.8-0.6-1.3-0.6
				c-0.4,0-0.8,0.2-1,0.6c-0.2,0.3-0.4,0.9-0.7,2c-0.4,1.4-0.7,2.4-0.9,2.9c-0.3,0.5-0.6,1-1.1,1.2c-0.5,0.3-1,0.4-1.5,0.4
				c-0.5,0-1-0.1-1.4-0.3c-0.4-0.2-0.8-0.5-1.1-1c-0.2-0.3-0.4-0.7-0.6-1.2c-0.2-0.5-0.2-1.1-0.2-1.7c0-0.9,0.1-1.7,0.4-2.4
				s0.6-1.2,1-1.5c0.4-0.3,1-0.5,1.8-0.7l0.3,1.9c-0.6,0.1-1,0.3-1.4,0.7c-0.3,0.4-0.5,1-0.5,1.7c0,0.9,0.1,1.5,0.4,1.9
				c0.3,0.4,0.6,0.6,1,0.6c0.3,0,0.5-0.1,0.7-0.2c0.2-0.2,0.4-0.4,0.5-0.7c0.1-0.2,0.2-0.8,0.5-1.7c0.4-1.4,0.7-2.3,0.9-2.9
				c0.2-0.5,0.6-1,1-1.3c0.4-0.3,1-0.5,1.7-0.5c0.6,0,1.3,0.2,1.8,0.6c0.6,0.4,1,0.9,1.3,1.6c0.3,0.7,0.5,1.5,0.5,2.4
				c0,1.5-0.3,2.6-0.9,3.4C36.6,314.7,35.7,315.2,34.5,315.5z"/>
			<path d="M36.2,299.5l1.7-0.3c0.1,0.5,0.2,1,0.2,1.5c0,0.7-0.1,1.2-0.3,1.6s-0.5,0.7-0.9,0.8c-0.4,0.2-1.1,0.2-2.3,0.2H28v1.4
				h-1.5v-1.4h-2.8l-1.2-1.9h4v-1.9H28v1.9h6.7c0.6,0,0.9,0,1.1-0.1c0.2-0.1,0.3-0.2,0.4-0.3c0.1-0.2,0.1-0.4,0.1-0.7
				C36.3,300.1,36.2,299.8,36.2,299.5z"/>
			<path d="M24.4,297.6h-2.2v-1.9h2.2V297.6z M37.9,297.6H26.5v-1.9h11.4V297.6z"/>
			<path d="M37.9,292.7H26.5V291h1.6c-0.6-0.4-1-0.8-1.3-1.4c-0.3-0.6-0.5-1.3-0.5-2c0-0.8,0.2-1.5,0.5-2.1c0.4-0.5,0.8-0.9,1.5-1.1
				c-1.3-0.9-2-2.1-2-3.5c0-1.1,0.3-2,0.9-2.6c0.6-0.6,1.6-0.9,2.9-0.9h7.8v1.9h-7.2c-0.8,0-1.3,0.1-1.7,0.2
				c-0.3,0.1-0.6,0.4-0.8,0.7c-0.2,0.3-0.3,0.7-0.3,1.2c0,0.8,0.3,1.5,0.8,2c0.5,0.5,1.4,0.8,2.6,0.8h6.6v1.9h-7.4
				c-0.9,0-1.5,0.2-1.9,0.5c-0.4,0.3-0.6,0.8-0.6,1.5c0,0.5,0.1,1,0.4,1.5s0.7,0.8,1.3,1c0.6,0.2,1.3,0.3,2.4,0.3h5.9V292.7z"/>
			<path d="M36.5,266.9c0.6,0.7,1,1.4,1.3,2.1c0.3,0.7,0.4,1.4,0.4,2.1c0,1.3-0.3,2.2-0.9,2.9c-0.6,0.7-1.4,1-2.3,1
				c-0.6,0-1.1-0.1-1.5-0.4c-0.5-0.3-0.8-0.6-1.1-1c-0.3-0.4-0.5-0.9-0.6-1.4c-0.1-0.4-0.2-1-0.3-1.7c-0.2-1.6-0.4-2.7-0.7-3.4
				c-0.3,0-0.4,0-0.5,0c-0.8,0-1.3,0.2-1.7,0.5c-0.4,0.5-0.7,1.2-0.7,2.2c0,0.9,0.2,1.6,0.5,2c0.3,0.4,0.9,0.8,1.7,1l-0.3,1.9
				c-0.8-0.2-1.5-0.5-2-0.8c-0.5-0.4-0.9-1-1.2-1.7c-0.3-0.7-0.4-1.6-0.4-2.6c0-1,0.1-1.8,0.3-2.4c0.2-0.6,0.5-1.1,0.9-1.3
				c0.3-0.3,0.8-0.5,1.3-0.6c0.3-0.1,0.9-0.1,1.8-0.1h2.6c1.8,0,2.9,0,3.4-0.1c0.5-0.1,0.9-0.2,1.4-0.5v2
				C37.5,266.7,37,266.9,36.5,266.9z M32.2,267.1c0.3,0.7,0.5,1.8,0.7,3.2c0.1,0.8,0.2,1.4,0.4,1.7c0.1,0.3,0.4,0.6,0.6,0.8
				c0.3,0.2,0.6,0.3,0.9,0.3c0.5,0,0.9-0.2,1.3-0.6c0.3-0.4,0.5-1,0.5-1.7c0-0.7-0.2-1.4-0.5-2c-0.3-0.6-0.8-1-1.3-1.3
				c-0.4-0.2-1.1-0.3-1.9-0.3H32.2z"/>
			<path d="M36.2,257.9l1.7-0.3c0.1,0.5,0.2,1,0.2,1.5c0,0.7-0.1,1.2-0.3,1.6s-0.5,0.7-0.9,0.8c-0.4,0.2-1.1,0.2-2.3,0.2H28v1.4
				h-1.5v-1.4h-2.8l-1.2-1.9h4v-1.9H28v1.9h6.7c0.6,0,0.9,0,1.1-0.1c0.2-0.1,0.3-0.2,0.4-0.3c0.1-0.2,0.1-0.4,0.1-0.7
				C36.3,258.5,36.2,258.3,36.2,257.9z"/>
			<path d="M34.2,248.2l0.2-2c1.2,0.3,2.1,0.9,2.7,1.8c0.6,0.9,1,1.9,1,3.3c0,1.7-0.5,3-1.5,4c-1,1-2.5,1.5-4.3,1.5
				c-1.9,0-3.4-0.5-4.5-1.5s-1.6-2.3-1.6-3.8c0-1.5,0.5-2.8,1.6-3.7s2.5-1.5,4.4-1.5c0.1,0,0.3,0,0.5,0v8.5c1.3-0.1,2.2-0.4,2.9-1.1
				c0.7-0.6,1-1.4,1-2.4c0-0.7-0.2-1.3-0.6-1.8C35.7,248.9,35.1,248.5,34.2,248.2z M31.1,254.5v-6.4c-1,0.1-1.7,0.3-2.2,0.7
				c-0.7,0.6-1.1,1.4-1.1,2.4c0,0.9,0.3,1.6,0.9,2.2C29.3,254.2,30.1,254.5,31.1,254.5z"/>
			<path d="M37.9,236.4h-1.4c1.1,0.7,1.7,1.8,1.7,3.2c0,0.9-0.3,1.7-0.8,2.5s-1.2,1.4-2.1,1.8c-0.9,0.4-1.9,0.6-3.1,0.6
				c-1.1,0-2.2-0.2-3.1-0.6c-0.9-0.4-1.6-0.9-2.1-1.7c-0.5-0.8-0.7-1.6-0.7-2.5c0-0.7,0.1-1.3,0.4-1.8c0.3-0.5,0.7-1,1.1-1.3h-5.7
				v-1.9h15.7V236.4z M32.2,242.5c1.5,0,2.6-0.3,3.3-0.9c0.7-0.6,1.1-1.3,1.1-2.2c0-0.8-0.3-1.6-1-2.2c-0.7-0.6-1.7-0.9-3.2-0.9
				c-1.6,0-2.7,0.3-3.4,0.9s-1.1,1.3-1.1,2.2c0,0.9,0.4,1.6,1.1,2.2C29.6,242.2,30.7,242.5,32.2,242.5z"/>
			<path d="M42.3,225.4H26.5v-1.8H28c-0.6-0.4-1-0.9-1.3-1.4c-0.3-0.5-0.4-1.2-0.4-1.9c0-1,0.3-1.8,0.8-2.6c0.5-0.7,1.2-1.3,2.1-1.7
				c0.9-0.4,1.9-0.6,3-0.6c1.2,0,2.2,0.2,3.2,0.6c0.9,0.4,1.7,1,2.1,1.8c0.5,0.8,0.7,1.6,0.7,2.5c0,0.6-0.1,1.2-0.4,1.7
				c-0.3,0.5-0.6,0.9-1,1.3h5.6V225.4z M32.3,223.7c1.5,0,2.6-0.3,3.3-0.9c0.7-0.6,1.1-1.3,1.1-2.2c0-0.9-0.4-1.6-1.1-2.2
				c-0.7-0.6-1.9-0.9-3.4-0.9c-1.5,0-2.5,0.3-3.3,0.9c-0.7,0.6-1.1,1.3-1.1,2.1c0,0.8,0.4,1.6,1.2,2.2
				C29.7,223.4,30.8,223.7,32.3,223.7z"/>
			<path d="M37.9,213.2H26.5v-1.7h1.7c-0.8-0.4-1.3-0.9-1.6-1.2s-0.4-0.8-0.4-1.2c0-0.7,0.2-1.3,0.6-2l1.8,0.7
				c-0.3,0.5-0.4,0.9-0.4,1.4c0,0.4,0.1,0.8,0.4,1.1c0.3,0.3,0.6,0.6,1.1,0.7c0.7,0.2,1.4,0.3,2.3,0.3h6V213.2z"/>
			<path d="M34.2,198.1l0.2-2c1.2,0.3,2.1,0.9,2.7,1.8c0.6,0.9,1,1.9,1,3.3c0,1.7-0.5,3-1.5,4c-1,1-2.5,1.5-4.3,1.5
				c-1.9,0-3.4-0.5-4.5-1.5s-1.6-2.3-1.6-3.8c0-1.5,0.5-2.8,1.6-3.7s2.5-1.5,4.4-1.5c0.1,0,0.3,0,0.5,0v8.5c1.3-0.1,2.2-0.4,2.9-1.1
				c0.7-0.6,1-1.4,1-2.4c0-0.7-0.2-1.3-0.6-1.8C35.7,198.7,35.1,198.4,34.2,198.1z M31.1,204.4V198c-1,0.1-1.7,0.3-2.2,0.7
				c-0.7,0.6-1.1,1.4-1.1,2.4c0,0.9,0.3,1.6,0.9,2.2C29.3,204,30.1,204.3,31.1,204.4z"/>
			<path d="M37.9,190.5l-11.4,4.3v-2l6.8-2.4c0.7-0.3,1.5-0.5,2.3-0.7c-0.6-0.2-1.3-0.4-2.2-0.7l-7-2.5v-2l11.4,4.3V190.5z"/>
			<path d="M36.5,175.2c0.6,0.7,1,1.4,1.3,2.1c0.3,0.7,0.4,1.4,0.4,2.1c0,1.3-0.3,2.2-0.9,2.9c-0.6,0.7-1.4,1-2.3,1
				c-0.6,0-1.1-0.1-1.5-0.4c-0.5-0.3-0.8-0.6-1.1-1c-0.3-0.4-0.5-0.9-0.6-1.4c-0.1-0.4-0.2-1-0.3-1.7c-0.2-1.6-0.4-2.7-0.7-3.4
				c-0.3,0-0.4,0-0.5,0c-0.8,0-1.3,0.2-1.7,0.5c-0.4,0.5-0.7,1.2-0.7,2.2c0,0.9,0.2,1.6,0.5,2c0.3,0.4,0.9,0.8,1.7,1l-0.3,1.9
				c-0.8-0.2-1.5-0.5-2-0.8c-0.5-0.4-0.9-1-1.2-1.7c-0.3-0.7-0.4-1.6-0.4-2.6c0-1,0.1-1.8,0.3-2.4c0.2-0.6,0.5-1.1,0.9-1.3
				c0.3-0.3,0.8-0.5,1.3-0.6c0.3-0.1,0.9-0.1,1.8-0.1h2.6c1.8,0,2.9,0,3.4-0.1c0.5-0.1,0.9-0.2,1.4-0.5v2
				C37.5,175,37,175.1,36.5,175.2z M32.2,175.3c0.3,0.7,0.5,1.8,0.7,3.2c0.1,0.8,0.2,1.4,0.4,1.7c0.1,0.3,0.4,0.6,0.6,0.8
				c0.3,0.2,0.6,0.3,0.9,0.3c0.5,0,0.9-0.2,1.3-0.6c0.3-0.4,0.5-1,0.5-1.7c0-0.7-0.2-1.4-0.5-2c-0.3-0.6-0.8-1-1.3-1.3
				c-0.4-0.2-1.1-0.3-1.9-0.3H32.2z"/>
			<path d="M37.9,170.4H22.2v-1.9h15.7V170.4z"/>
			<path d="M34.2,157.7l0.2-2c1.2,0.3,2.1,0.9,2.7,1.8c0.6,0.9,1,1.9,1,3.3c0,1.7-0.5,3-1.5,4c-1,1-2.5,1.5-4.3,1.5
				c-1.9,0-3.4-0.5-4.5-1.5s-1.6-2.3-1.6-3.8c0-1.5,0.5-2.8,1.6-3.7s2.5-1.5,4.4-1.5c0.1,0,0.3,0,0.5,0v8.5c1.3-0.1,2.2-0.4,2.9-1.1
				c0.7-0.6,1-1.4,1-2.4c0-0.7-0.2-1.3-0.6-1.8C35.7,158.4,35.1,158,34.2,157.7z M31.1,164v-6.4c-1,0.1-1.7,0.3-2.2,0.7
				c-0.7,0.6-1.1,1.4-1.1,2.4c0,0.9,0.3,1.6,0.9,2.2C29.3,163.6,30.1,164,31.1,164z"/>
			<path d="M37.9,153.3H26.5v-1.7h1.6c-1.3-0.8-1.9-2-1.9-3.6c0-0.7,0.1-1.3,0.4-1.9c0.2-0.6,0.6-1,1-1.3c0.4-0.3,0.9-0.5,1.4-0.6
				c0.4-0.1,1-0.1,1.9-0.1h7v1.9H31c-0.8,0-1.4,0.1-1.8,0.2c-0.4,0.2-0.7,0.4-0.9,0.8c-0.2,0.4-0.3,0.8-0.3,1.3
				c0,0.8,0.3,1.5,0.8,2.1c0.5,0.6,1.5,0.9,3,0.9h6.2V153.3z"/>
			<path d="M33.7,133.6l0.2-1.9c1.3,0.2,2.3,0.7,3.1,1.6c0.7,0.9,1.1,1.9,1.1,3.2c0,1.6-0.5,2.8-1.5,3.8c-1,0.9-2.5,1.4-4.4,1.4
				c-1.2,0-2.3-0.2-3.2-0.6s-1.6-1-2.1-1.9c-0.5-0.8-0.7-1.7-0.7-2.7c0-1.2,0.3-2.3,0.9-3c0.6-0.8,1.5-1.3,2.7-1.5l0.3,1.9
				c-0.8,0.2-1.3,0.5-1.7,1c-0.4,0.5-0.6,1-0.6,1.6c0,1,0.3,1.8,1,2.4c0.7,0.6,1.8,0.9,3.3,0.9c1.5,0,2.6-0.3,3.3-0.9
				c0.7-0.6,1-1.4,1-2.3c0-0.8-0.2-1.4-0.7-1.9C35.4,134.1,34.7,133.7,33.7,133.6z"/>
			<path d="M34.2,122.2l0.2-2c1.2,0.3,2.1,0.9,2.7,1.8c0.6,0.9,1,1.9,1,3.3c0,1.7-0.5,3-1.5,4c-1,1-2.5,1.5-4.3,1.5
				c-1.9,0-3.4-0.5-4.5-1.5s-1.6-2.3-1.6-3.8c0-1.5,0.5-2.8,1.6-3.7s2.5-1.5,4.4-1.5c0.1,0,0.3,0,0.5,0v8.5c1.3-0.1,2.2-0.4,2.9-1.1
				c0.7-0.6,1-1.4,1-2.4c0-0.7-0.2-1.3-0.6-1.8C35.7,122.9,35.1,122.5,34.2,122.2z M31.1,128.6v-6.4c-1,0.1-1.7,0.3-2.2,0.7
				c-0.7,0.6-1.1,1.4-1.1,2.4c0,0.9,0.3,1.6,0.9,2.2C29.3,128.2,30.1,128.5,31.1,128.6z"/>
		</g>
		<g class="st14">
			<path d="M56,358.6c-2.1,0-3.7-0.6-4.7-1.8c-0.8-1-1.3-2.2-1.3-3.6c0-1.6,0.5-2.9,1.5-3.8c1-1,2.4-1.5,4.3-1.5
				c1.5,0,2.6,0.2,3.5,0.7c0.8,0.4,1.5,1.1,2,1.9c0.5,0.8,0.7,1.8,0.7,2.8c0,1.6-0.5,2.9-1.5,3.9C59.4,358.1,57.9,358.6,56,358.6z
				 M56,356.6c1.5,0,2.6-0.3,3.3-1c0.7-0.6,1.1-1.4,1.1-2.4c0-1-0.4-1.8-1.1-2.4c-0.7-0.6-1.8-1-3.3-1c-1.4,0-2.5,0.3-3.2,1
				c-0.7,0.6-1.1,1.4-1.1,2.4c0,1,0.4,1.8,1.1,2.4C53.4,356.3,54.5,356.6,56,356.6z"/>
			<path d="M61.7,345.2h-9.9v1.7h-1.5v-1.7h-1.2c-0.8,0-1.3-0.1-1.7-0.2c-0.5-0.2-0.9-0.5-1.2-1c-0.3-0.5-0.5-1.1-0.5-2
				c0-0.5,0.1-1.1,0.2-1.8l1.7,0.3c-0.1,0.4-0.1,0.8-0.1,1.1c0,0.6,0.1,1,0.4,1.2c0.3,0.2,0.7,0.4,1.4,0.4h1.1V341h1.5v2.2h9.9
				V345.2z"/>
			<path d="M61.7,331.4l-11.4,3.5v-2l6.6-1.8l2.4-0.7c-0.1,0-0.9-0.2-2.4-0.6l-6.7-1.8v-2l6.6-1.7l2.2-0.6l-2.2-0.7l-6.6-2v-1.9
				l11.4,3.6v2l-6.8,1.8l-1.9,0.4l8.8,2.3V331.4z"/>
			<path d="M48.2,317.6h-2.2v-1.9h2.2V317.6z M61.7,317.6H50.3v-1.9h11.4V317.6z"/>
			<path d="M59.9,308.5l1.7-0.3c0.1,0.5,0.2,1,0.2,1.5c0,0.7-0.1,1.2-0.3,1.6s-0.5,0.7-0.9,0.8c-0.4,0.2-1.1,0.2-2.3,0.2h-6.6v1.4
				h-1.5v-1.4h-2.8l-1.2-1.9h4v-1.9h1.5v1.9h6.7c0.6,0,0.9,0,1.1-0.1c0.2-0.1,0.3-0.2,0.4-0.3c0.1-0.2,0.1-0.4,0.1-0.7
				C60,309.2,60,308.9,59.9,308.5z"/>
			<path d="M61.7,306.7H45.9v-1.9h5.7c-1-0.9-1.6-2-1.6-3.4c0-0.8,0.2-1.6,0.5-2.2c0.3-0.6,0.8-1.1,1.4-1.3s1.4-0.4,2.6-0.4h7.2v1.9
				h-7.2c-1,0-1.7,0.2-2.1,0.6c-0.4,0.4-0.7,1-0.7,1.8c0,0.6,0.1,1.1,0.4,1.6c0.3,0.5,0.7,0.9,1.2,1.1s1.2,0.3,2.1,0.3h6.2V306.7z"
				/>
			<path d="M48.2,294.4h-2.2v-1.9h2.2V294.4z M61.7,294.4H50.3v-1.9h11.4V294.4z"/>
			<path d="M61.7,289.5H50.3v-1.7h1.6c-1.3-0.8-1.9-2-1.9-3.6c0-0.7,0.1-1.3,0.4-1.9c0.2-0.6,0.6-1,1-1.3c0.4-0.3,0.9-0.5,1.4-0.6
				c0.4-0.1,1-0.1,1.9-0.1h7v1.9h-6.9c-0.8,0-1.4,0.1-1.8,0.2c-0.4,0.2-0.7,0.4-0.9,0.8c-0.2,0.4-0.3,0.8-0.3,1.3
				c0,0.8,0.3,1.5,0.8,2.1c0.5,0.6,1.5,0.9,3,0.9h6.2V289.5z"/>
			<path d="M56.9,278.1H55v-5.9h1.9V278.1z"/>
			<path d="M58.3,270.7l-0.3-1.9c0.8-0.1,1.4-0.4,1.8-0.9c0.4-0.5,0.6-1.2,0.6-2.1c0-0.9-0.2-1.5-0.5-2c-0.4-0.4-0.8-0.6-1.3-0.6
				c-0.4,0-0.8,0.2-1,0.6c-0.2,0.3-0.4,0.9-0.7,2c-0.4,1.4-0.7,2.4-0.9,2.9c-0.3,0.5-0.6,1-1.1,1.2c-0.5,0.3-1,0.4-1.5,0.4
				c-0.5,0-1-0.1-1.4-0.3c-0.4-0.2-0.8-0.5-1.1-1c-0.2-0.3-0.4-0.7-0.6-1.2c-0.2-0.5-0.2-1.1-0.2-1.7c0-0.9,0.1-1.7,0.4-2.4
				s0.6-1.2,1-1.5c0.4-0.3,1-0.5,1.8-0.7l0.3,1.9c-0.6,0.1-1,0.3-1.4,0.7c-0.3,0.4-0.5,1-0.5,1.7c0,0.9,0.1,1.5,0.4,1.9
				c0.3,0.4,0.6,0.6,1,0.6c0.3,0,0.5-0.1,0.7-0.2c0.2-0.2,0.4-0.4,0.5-0.7c0.1-0.2,0.2-0.8,0.5-1.7c0.4-1.4,0.7-2.3,0.9-2.9
				c0.2-0.5,0.6-1,1-1.3c0.4-0.3,1-0.5,1.7-0.5c0.6,0,1.3,0.2,1.8,0.6c0.6,0.4,1,0.9,1.3,1.6c0.3,0.7,0.5,1.5,0.5,2.4
				c0,1.5-0.3,2.6-0.9,3.4C60.4,270,59.5,270.5,58.3,270.7z"/>
			<path d="M61.7,251.5H60c1.3,0.9,1.9,2.1,1.9,3.6c0,0.7-0.1,1.3-0.4,1.9c-0.3,0.6-0.6,1-1,1.3c-0.4,0.3-0.9,0.5-1.4,0.6
				c-0.4,0.1-1,0.1-1.8,0.1h-7.1v-1.9h6.3c1,0,1.7,0,2-0.1c0.5-0.1,0.9-0.4,1.2-0.8c0.3-0.4,0.4-0.9,0.4-1.5s-0.1-1.1-0.4-1.6
				c-0.3-0.5-0.7-0.9-1.2-1.1c-0.5-0.2-1.3-0.3-2.2-0.3h-6.1v-1.9h11.4V251.5z"/>
			<path d="M61.7,245v1.8H45.9v-1.9h5.6c-1-0.8-1.5-1.9-1.5-3.1c0-0.7,0.1-1.4,0.4-2c0.3-0.6,0.7-1.1,1.2-1.5c0.5-0.4,1.1-0.7,1.9-1
				c0.7-0.2,1.5-0.3,2.3-0.3c2,0,3.5,0.5,4.5,1.5s1.6,2.1,1.6,3.5c0,1.3-0.6,2.4-1.7,3.2H61.7z M55.9,245c1.4,0,2.4-0.2,3-0.6
				c1-0.6,1.5-1.4,1.5-2.5c0-0.8-0.4-1.6-1.1-2.2c-0.7-0.6-1.8-0.9-3.3-0.9c-1.5,0-2.6,0.3-3.3,0.9s-1.1,1.3-1.1,2.1
				c0,0.8,0.4,1.6,1.1,2.2C53.4,244.7,54.5,245,55.9,245z"/>
			<path d="M48.2,234.5h-2.2v-1.9h2.2V234.5z M66.1,237l-1.6-0.4c0.1-0.4,0.2-0.7,0.2-0.9c0-0.4-0.1-0.7-0.4-0.9
				c-0.3-0.2-0.9-0.3-2-0.3h-12v-1.9h12c1.4,0,2.4,0.2,2.9,0.5c0.7,0.5,1.1,1.2,1.1,2.3C66.3,236,66.2,236.5,66.1,237z"/>
			<path d="M58,221.8l0.2-2c1.2,0.3,2.1,0.9,2.7,1.8c0.6,0.9,1,1.9,1,3.3c0,1.7-0.5,3-1.5,4c-1,1-2.5,1.5-4.3,1.5
				c-1.9,0-3.4-0.5-4.5-1.5s-1.6-2.3-1.6-3.8c0-1.5,0.5-2.8,1.6-3.7s2.5-1.5,4.4-1.5c0.1,0,0.3,0,0.5,0v8.5c1.3-0.1,2.2-0.4,2.9-1.1
				c0.7-0.6,1-1.4,1-2.4c0-0.7-0.2-1.3-0.6-1.8C59.4,222.5,58.8,222.1,58,221.8z M54.9,228.2v-6.4c-1,0.1-1.7,0.3-2.2,0.7
				c-0.7,0.6-1.1,1.4-1.1,2.4c0,0.9,0.3,1.6,0.9,2.2C53.1,227.8,53.9,228.1,54.9,228.2z"/>
			<path d="M57.5,209.9l0.2-1.9c1.3,0.2,2.3,0.7,3.1,1.6c0.7,0.9,1.1,1.9,1.1,3.2c0,1.6-0.5,2.8-1.5,3.8c-1,0.9-2.5,1.4-4.4,1.4
				c-1.2,0-2.3-0.2-3.2-0.6s-1.6-1-2.1-1.9c-0.5-0.8-0.7-1.7-0.7-2.7c0-1.2,0.3-2.3,0.9-3c0.6-0.8,1.5-1.3,2.7-1.5l0.3,1.9
				c-0.8,0.2-1.3,0.5-1.7,1c-0.4,0.5-0.6,1-0.6,1.6c0,1,0.3,1.8,1,2.4c0.7,0.6,1.8,0.9,3.3,0.9c1.5,0,2.6-0.3,3.3-0.9
				c0.7-0.6,1-1.4,1-2.3c0-0.8-0.2-1.4-0.7-1.9C59.2,210.4,58.5,210.1,57.5,209.9z"/>
			<path d="M59.9,202.2l1.7-0.3c0.1,0.5,0.2,1,0.2,1.5c0,0.7-0.1,1.2-0.3,1.6s-0.5,0.7-0.9,0.8c-0.4,0.2-1.1,0.2-2.3,0.2h-6.6v1.4
				h-1.5V206h-2.8l-1.2-1.9h4v-1.9h1.5v1.9h6.7c0.6,0,0.9,0,1.1-0.1c0.2-0.1,0.3-0.2,0.4-0.3c0.1-0.2,0.1-0.4,0.1-0.7
				C60,202.8,60,202.5,59.9,202.2z"/>
			<path d="M58,186.5l0.2-2c1.2,0.3,2.1,0.9,2.7,1.8c0.6,0.9,1,1.9,1,3.3c0,1.7-0.5,3-1.5,4c-1,1-2.5,1.5-4.3,1.5
				c-1.9,0-3.4-0.5-4.5-1.5s-1.6-2.3-1.6-3.8c0-1.5,0.5-2.8,1.6-3.7s2.5-1.5,4.4-1.5c0.1,0,0.3,0,0.5,0v8.5c1.3-0.1,2.2-0.4,2.9-1.1
				c0.7-0.6,1-1.4,1-2.4c0-0.7-0.2-1.3-0.6-1.8C59.4,187.2,58.8,186.8,58,186.5z M54.9,192.8v-6.4c-1,0.1-1.7,0.3-2.2,0.7
				c-0.7,0.6-1.1,1.4-1.1,2.4c0,0.9,0.3,1.6,0.9,2.2C53.1,192.4,53.9,192.8,54.9,192.8z"/>
			<path d="M61.7,181.6h-9.9v1.7h-1.5v-1.7h-1.2c-0.8,0-1.3-0.1-1.7-0.2c-0.5-0.2-0.9-0.5-1.2-1c-0.3-0.5-0.5-1.1-0.5-2
				c0-0.5,0.1-1.1,0.2-1.8l1.7,0.3c-0.1,0.4-0.1,0.8-0.1,1.1c0,0.6,0.1,1,0.4,1.2c0.3,0.2,0.7,0.4,1.4,0.4h1.1v-2.2h1.5v2.2h9.9
				V181.6z"/>
			<path d="M61.7,175.5h-9.9v1.7h-1.5v-1.7h-1.2c-0.8,0-1.3-0.1-1.7-0.2c-0.5-0.2-0.9-0.5-1.2-1c-0.3-0.5-0.5-1.1-0.5-2
				c0-0.5,0.1-1.1,0.2-1.8l1.7,0.3c-0.1,0.4-0.1,0.8-0.1,1.1c0,0.6,0.1,1,0.4,1.2c0.3,0.2,0.7,0.4,1.4,0.4h1.1v-2.2h1.5v2.2h9.9
				V175.5z"/>
			<path d="M58,162l0.2-2c1.2,0.3,2.1,0.9,2.7,1.8c0.6,0.9,1,1.9,1,3.3c0,1.7-0.5,3-1.5,4c-1,1-2.5,1.5-4.3,1.5
				c-1.9,0-3.4-0.5-4.5-1.5s-1.6-2.3-1.6-3.8c0-1.5,0.5-2.8,1.6-3.7s2.5-1.5,4.4-1.5c0.1,0,0.3,0,0.5,0v8.5c1.3-0.1,2.2-0.4,2.9-1.1
				c0.7-0.6,1-1.4,1-2.4c0-0.7-0.2-1.3-0.6-1.8C59.4,162.7,58.8,162.3,58,162z M54.9,168.4V162c-1,0.1-1.7,0.3-2.2,0.7
				c-0.7,0.6-1.1,1.4-1.1,2.4c0,0.9,0.3,1.6,0.9,2.2C53.1,168,53.9,168.3,54.9,168.4z"/>
			<path d="M57.5,150.1l0.2-1.9c1.3,0.2,2.3,0.7,3.1,1.6c0.7,0.9,1.1,1.9,1.1,3.2c0,1.6-0.5,2.8-1.5,3.8c-1,0.9-2.5,1.4-4.4,1.4
				c-1.2,0-2.3-0.2-3.2-0.6s-1.6-1-2.1-1.9c-0.5-0.8-0.7-1.7-0.7-2.7c0-1.2,0.3-2.3,0.9-3c0.6-0.8,1.5-1.3,2.7-1.5l0.3,1.9
				c-0.8,0.2-1.3,0.5-1.7,1c-0.4,0.5-0.6,1-0.6,1.6c0,1,0.3,1.8,1,2.4c0.7,0.6,1.8,0.9,3.3,0.9c1.5,0,2.6-0.3,3.3-0.9
				c0.7-0.6,1-1.4,1-2.3c0-0.8-0.2-1.4-0.7-1.9C59.2,150.6,58.5,150.3,57.5,150.1z"/>
			<path d="M59.9,142.4l1.7-0.3c0.1,0.5,0.2,1,0.2,1.5c0,0.7-0.1,1.2-0.3,1.6s-0.5,0.7-0.9,0.8c-0.4,0.2-1.1,0.2-2.3,0.2h-6.6v1.4
				h-1.5v-1.4h-2.8l-1.2-1.9h4v-1.9h1.5v1.9h6.7c0.6,0,0.9,0,1.1-0.1c0.2-0.1,0.3-0.2,0.4-0.3c0.1-0.2,0.1-0.4,0.1-0.7
				C60,143,60,142.7,59.9,142.4z"/>
			<path d="M58.3,141.3l-0.3-1.9c0.8-0.1,1.4-0.4,1.8-0.9c0.4-0.5,0.6-1.2,0.6-2.1c0-0.9-0.2-1.5-0.5-2c-0.4-0.4-0.8-0.6-1.3-0.6
				c-0.4,0-0.8,0.2-1,0.6c-0.2,0.3-0.4,0.9-0.7,2c-0.4,1.4-0.7,2.4-0.9,2.9c-0.3,0.5-0.6,1-1.1,1.2c-0.5,0.3-1,0.4-1.5,0.4
				c-0.5,0-1-0.1-1.4-0.3c-0.4-0.2-0.8-0.5-1.1-1c-0.2-0.3-0.4-0.7-0.6-1.2c-0.2-0.5-0.2-1.1-0.2-1.7c0-0.9,0.1-1.7,0.4-2.4
				s0.6-1.2,1-1.5c0.4-0.3,1-0.5,1.8-0.7l0.3,1.9c-0.6,0.1-1,0.3-1.4,0.7c-0.3,0.4-0.5,1-0.5,1.7c0,0.9,0.1,1.5,0.4,1.9
				c0.3,0.4,0.6,0.6,1,0.6c0.3,0,0.5-0.1,0.7-0.2c0.2-0.2,0.4-0.4,0.5-0.7c0.1-0.2,0.2-0.8,0.5-1.7c0.4-1.4,0.7-2.3,0.9-2.9
				c0.2-0.5,0.6-1,1-1.3c0.4-0.3,1-0.5,1.7-0.5c0.6,0,1.3,0.2,1.8,0.6c0.6,0.4,1,0.9,1.3,1.6c0.3,0.7,0.5,1.5,0.5,2.4
				c0,1.5-0.3,2.6-0.9,3.4C60.4,140.5,59.5,141,58.3,141.3z"/>
			<path d="M66.3,119.8c-1.3,1.1-2.9,2-4.7,2.7c-1.8,0.7-3.7,1.1-5.6,1.1c-1.7,0-3.3-0.3-4.9-0.8c-1.8-0.6-3.6-1.6-5.4-3v-1.4
				c1.5,0.9,2.6,1.4,3.2,1.7c1,0.4,2,0.8,3.1,1c1.3,0.3,2.7,0.5,4,0.5c3.4,0,6.9-1.1,10.3-3.2V119.8z"/>
			<path d="M62.3,113l-16.6-8.6v-1.6l16.6,8.6V113z M49.7,116.3c-1.1,0-2.1-0.3-2.9-0.8s-1.2-1.4-1.2-2.5c0-1,0.4-1.8,1.1-2.5
				c0.7-0.6,1.7-1,3.1-1c1.3,0,2.4,0.3,3.1,1c0.7,0.7,1.1,1.5,1.1,2.4c0,1-0.4,1.7-1.1,2.4C52.2,116,51.1,116.3,49.7,116.3z M47,113
				c0,0.5,0.2,0.9,0.6,1.2c0.4,0.3,1.2,0.5,2.3,0.5c1,0,1.7-0.2,2.1-0.5c0.4-0.3,0.6-0.7,0.6-1.2c0-0.5-0.2-0.9-0.6-1.2
				c-0.4-0.3-1.2-0.5-2.3-0.5c-1,0-1.7,0.2-2.1,0.5C47.2,112.1,47,112.5,47,113z M58,106.2c-1.1,0-2.1-0.3-2.9-0.8
				c-0.8-0.6-1.2-1.4-1.2-2.5c0-1,0.4-1.8,1.1-2.5c0.7-0.6,1.7-1,3.1-1c1.3,0,2.4,0.3,3.1,1c0.7,0.7,1.1,1.5,1.1,2.4
				c0,1-0.4,1.7-1.1,2.4C60.5,105.8,59.4,106.2,58,106.2z M55.3,102.8c0,0.5,0.2,0.9,0.6,1.2c0.4,0.3,1.2,0.5,2.3,0.5
				c1,0,1.7-0.2,2.1-0.5s0.6-0.7,0.6-1.2c0-0.5-0.2-0.9-0.6-1.2c-0.4-0.3-1.2-0.5-2.3-0.5c-1,0-1.7,0.2-2.1,0.5
				C55.5,101.9,55.3,102.3,55.3,102.8z"/>
			<path d="M66.3,95.3v1.4c-3.4-2.1-6.9-3.2-10.3-3.2c-1.3,0-2.7,0.2-4,0.5c-1.1,0.2-2.1,0.6-3.1,1c-0.6,0.3-1.7,0.9-3.2,1.7v-1.4
				c1.8-1.3,3.6-2.3,5.4-3c1.6-0.6,3.2-0.8,4.9-0.8c1.9,0,3.8,0.4,5.6,1.1C63.4,93.4,65,94.3,66.3,95.3z"/>
		</g>
		<g class="st14">
			<path d="M305.7,52.2V23.6h10.8c1.9,0,3.4,0.1,4.4,0.3c1.4,0.2,2.6,0.7,3.5,1.3c1,0.7,1.7,1.6,2.3,2.8c0.6,1.2,0.9,2.5,0.9,3.9
				c0,2.4-0.8,4.5-2.3,6.2c-1.5,1.7-4.3,2.5-8.4,2.5h-7.3v11.6H305.7z M309.5,37.2h7.4c2.4,0,4.2-0.5,5.2-1.4c1-0.9,1.5-2.2,1.5-3.8
				c0-1.2-0.3-2.2-0.9-3.1c-0.6-0.9-1.4-1.4-2.4-1.7c-0.6-0.2-1.8-0.3-3.5-0.3h-7.3V37.2z"/>
			<path d="M331.9,52.2V31.4h3.2v3.1c0.8-1.5,1.6-2.4,2.2-2.9s1.4-0.7,2.3-0.7c1.2,0,2.4,0.4,3.6,1.1l-1.2,3.3
				c-0.9-0.5-1.7-0.8-2.6-0.8c-0.8,0-1.5,0.2-2.1,0.7c-0.6,0.5-1,1.1-1.3,1.9c-0.4,1.2-0.6,2.6-0.6,4.1v10.9H331.9z"/>
			<path d="M359.5,45.5l3.6,0.4c-0.6,2.1-1.6,3.8-3.2,4.9c-1.5,1.2-3.5,1.8-5.9,1.8c-3,0-5.4-0.9-7.2-2.8c-1.8-1.9-2.7-4.5-2.7-7.9
				c0-3.5,0.9-6.2,2.7-8.1c1.8-1.9,4.1-2.9,7-2.9c2.8,0,5,0.9,6.8,2.8c1.8,1.9,2.6,4.5,2.6,8c0,0.2,0,0.5,0,0.9h-15.5
				c0.1,2.3,0.8,4,1.9,5.2c1.2,1.2,2.6,1.8,4.3,1.8c1.3,0,2.4-0.3,3.3-1C358.2,48.1,358.9,47,359.5,45.5z M347.9,39.8h11.6
				c-0.2-1.7-0.6-3.1-1.3-3.9c-1.1-1.4-2.6-2-4.4-2c-1.6,0-3,0.5-4.1,1.6C348.7,36.6,348.1,38,347.9,39.8z"/>
			<path d="M373.3,52.2l-7.9-20.7h3.7l4.5,12.4c0.5,1.3,0.9,2.7,1.3,4.2c0.3-1.1,0.7-2.4,1.3-3.9l4.6-12.7h3.6l-7.9,20.7H373.3z"/>
			<path d="M401.1,49.6c-1.3,1.1-2.6,1.9-3.8,2.3c-1.2,0.5-2.5,0.7-3.9,0.7c-2.3,0-4-0.6-5.3-1.7c-1.2-1.1-1.8-2.5-1.8-4.3
				c0-1,0.2-1.9,0.7-2.8c0.5-0.8,1.1-1.5,1.8-2c0.7-0.5,1.6-0.9,2.5-1.2c0.7-0.2,1.7-0.4,3.1-0.5c2.8-0.3,4.9-0.7,6.3-1.2
				c0-0.5,0-0.8,0-0.9c0-1.4-0.3-2.4-1-3c-0.9-0.8-2.2-1.2-4-1.2c-1.7,0-2.9,0.3-3.7,0.9c-0.8,0.6-1.4,1.6-1.7,3.1l-3.4-0.5
				c0.3-1.5,0.8-2.7,1.5-3.6c0.7-0.9,1.8-1.6,3.1-2.1c1.4-0.5,2.9-0.7,4.7-0.7c1.8,0,3.2,0.2,4.3,0.6c1.1,0.4,1.9,0.9,2.4,1.6
				c0.5,0.6,0.9,1.4,1.1,2.4c0.1,0.6,0.2,1.7,0.2,3.2v4.7c0,3.3,0.1,5.3,0.2,6.2c0.1,0.9,0.4,1.7,0.9,2.5h-3.7
				C401.4,51.5,401.2,50.6,401.1,49.6z M400.8,41.8c-1.3,0.5-3.2,1-5.7,1.3c-1.4,0.2-2.5,0.4-3.1,0.7c-0.6,0.3-1.1,0.6-1.4,1.1
				c-0.3,0.5-0.5,1.1-0.5,1.7c0,0.9,0.4,1.7,1.1,2.3c0.7,0.6,1.7,0.9,3.1,0.9c1.4,0,2.6-0.3,3.6-0.9c1.1-0.6,1.8-1.4,2.3-2.4
				c0.4-0.8,0.6-2,0.6-3.5V41.8z"/>
			<path d="M409.7,52.2V23.6h3.5v28.6H409.7z"/>
			<path d="M432.9,45.5l3.6,0.4c-0.6,2.1-1.6,3.8-3.2,4.9c-1.5,1.2-3.5,1.8-5.9,1.8c-3,0-5.4-0.9-7.2-2.8c-1.8-1.9-2.7-4.5-2.7-7.9
				c0-3.5,0.9-6.2,2.7-8.1c1.8-1.9,4.1-2.9,7-2.9c2.8,0,5,0.9,6.8,2.8c1.8,1.9,2.6,4.5,2.6,8c0,0.2,0,0.5,0,0.9h-15.5
				c0.1,2.3,0.8,4,1.9,5.2c1.2,1.2,2.6,1.8,4.3,1.8c1.3,0,2.4-0.3,3.3-1C431.6,48.1,432.3,47,432.9,45.5z M421.3,39.8h11.6
				c-0.2-1.7-0.6-3.1-1.3-3.9c-1.1-1.4-2.6-2-4.4-2c-1.6,0-3,0.5-4.1,1.6C422,36.6,421.4,38,421.3,39.8z"/>
			<path d="M440.9,52.2V31.4h3.2v2.9c1.5-2.3,3.7-3.4,6.6-3.4c1.2,0,2.4,0.2,3.4,0.7c1,0.4,1.8,1,2.4,1.8c0.5,0.7,0.9,1.6,1.1,2.6
				c0.1,0.7,0.2,1.8,0.2,3.4v12.8h-3.5V39.6c0-1.4-0.1-2.5-0.4-3.2c-0.3-0.7-0.8-1.3-1.5-1.7c-0.7-0.4-1.5-0.6-2.5-0.6
				c-1.5,0-2.8,0.5-3.9,1.4c-1.1,1-1.6,2.8-1.6,5.4v11.3H440.9z"/>
			<path d="M476.7,44.6l3.5,0.4c-0.4,2.4-1.3,4.2-2.9,5.6c-1.6,1.3-3.5,2-5.7,2c-2.8,0-5.1-0.9-6.8-2.8c-1.7-1.9-2.6-4.5-2.6-8
				c0-2.2,0.4-4.2,1.1-5.9s1.9-2.9,3.4-3.8c1.5-0.8,3.2-1.3,5-1.3c2.3,0,4.1,0.6,5.5,1.7c1.4,1.1,2.4,2.8,2.8,4.9l-3.4,0.5
				c-0.3-1.4-0.9-2.4-1.7-3.1c-0.8-0.7-1.8-1.1-3-1.1c-1.8,0-3.2,0.6-4.3,1.9c-1.1,1.3-1.7,3.3-1.7,6c0,2.8,0.5,4.8,1.6,6.1
				c1.1,1.3,2.5,1.9,4.2,1.9c1.4,0,2.5-0.4,3.5-1.3C475.9,47.7,476.4,46.4,476.7,44.6z"/>
			<path d="M497.3,45.5L501,46c-0.6,2.1-1.6,3.8-3.2,4.9c-1.5,1.2-3.5,1.8-5.9,1.8c-3,0-5.4-0.9-7.2-2.8c-1.8-1.9-2.7-4.5-2.7-7.9
				c0-3.5,0.9-6.2,2.7-8.1c1.8-1.9,4.1-2.9,7-2.9c2.8,0,5,0.9,6.8,2.8c1.8,1.9,2.6,4.5,2.6,8c0,0.2,0,0.5,0,0.9h-15.5
				c0.1,2.3,0.8,4,1.9,5.2c1.2,1.2,2.6,1.8,4.3,1.8c1.3,0,2.4-0.3,3.3-1C496.1,48.1,496.8,47,497.3,45.5z M485.8,39.8h11.6
				c-0.2-1.7-0.6-3.1-1.3-3.9c-1.1-1.4-2.6-2-4.4-2c-1.6,0-3,0.5-4.1,1.6C486.5,36.6,485.9,38,485.8,39.8z"/>
			<path d="M515.1,52.2V23.6h10.7c2.2,0,3.9,0.3,5.3,0.9c1.3,0.6,2.4,1.5,3.1,2.7c0.7,1.2,1.1,2.5,1.1,3.8c0,1.2-0.3,2.4-1,3.5
				c-0.7,1.1-1.7,2-3,2.6c1.7,0.5,3.1,1.4,4,2.6c0.9,1.2,1.4,2.7,1.4,4.3c0,1.3-0.3,2.6-0.8,3.7s-1.3,2-2.1,2.7
				c-0.8,0.6-1.9,1.1-3.1,1.4c-1.3,0.3-2.8,0.5-4.6,0.5H515.1z M518.9,35.6h6.2c1.7,0,2.9-0.1,3.6-0.3c1-0.3,1.7-0.8,2.2-1.4
				s0.7-1.5,0.7-2.5c0-1-0.2-1.8-0.7-2.5c-0.5-0.7-1.1-1.2-2-1.5c-0.8-0.3-2.3-0.4-4.4-0.4h-5.7V35.6z M518.9,48.8h7.1
				c1.2,0,2.1,0,2.6-0.1c0.9-0.2,1.6-0.4,2.2-0.8c0.6-0.4,1.1-0.9,1.4-1.6c0.4-0.7,0.6-1.5,0.6-2.4c0-1.1-0.3-2-0.8-2.8
				c-0.5-0.8-1.3-1.3-2.3-1.7c-1-0.3-2.4-0.5-4.2-0.5h-6.6V48.8z"/>
			<path d="M555,49.6c-1.3,1.1-2.6,1.9-3.8,2.3c-1.2,0.5-2.5,0.7-3.9,0.7c-2.3,0-4-0.6-5.3-1.7c-1.2-1.1-1.8-2.5-1.8-4.3
				c0-1,0.2-1.9,0.7-2.8c0.5-0.8,1.1-1.5,1.8-2c0.7-0.5,1.6-0.9,2.5-1.2c0.7-0.2,1.7-0.4,3.1-0.5c2.8-0.3,4.9-0.7,6.3-1.2
				c0-0.5,0-0.8,0-0.9c0-1.4-0.3-2.4-1-3c-0.9-0.8-2.2-1.2-4-1.2c-1.7,0-2.9,0.3-3.7,0.9c-0.8,0.6-1.4,1.6-1.7,3.1l-3.4-0.5
				c0.3-1.5,0.8-2.7,1.5-3.6c0.7-0.9,1.8-1.6,3.1-2.1c1.4-0.5,2.9-0.7,4.7-0.7c1.8,0,3.2,0.2,4.3,0.6c1.1,0.4,1.9,0.9,2.4,1.6
				c0.5,0.6,0.9,1.4,1.1,2.4c0.1,0.6,0.2,1.7,0.2,3.2v4.7c0,3.3,0.1,5.3,0.2,6.2c0.1,0.9,0.4,1.7,0.9,2.5h-3.7
				C555.4,51.5,555.1,50.6,555,49.6z M554.7,41.8c-1.3,0.5-3.2,1-5.7,1.3c-1.4,0.2-2.5,0.4-3.1,0.7c-0.6,0.3-1.1,0.6-1.4,1.1
				c-0.3,0.5-0.5,1.1-0.5,1.7c0,0.9,0.4,1.7,1.1,2.3c0.7,0.6,1.7,0.9,3.1,0.9c1.4,0,2.6-0.3,3.6-0.9c1.1-0.6,1.8-1.4,2.3-2.4
				c0.4-0.8,0.6-2,0.6-3.5V41.8z"/>
			<path d="M563.6,60.2l-0.4-3.3c0.8,0.2,1.4,0.3,2,0.3c0.8,0,1.4-0.1,1.9-0.4c0.5-0.3,0.9-0.6,1.2-1.1c0.2-0.4,0.6-1.2,1.1-2.6
				c0.1-0.2,0.2-0.5,0.3-0.9l-7.9-20.8h3.8l4.3,12c0.6,1.5,1.1,3.1,1.5,4.8c0.4-1.6,0.9-3.2,1.4-4.7l4.4-12.1h3.5l-7.9,21.1
				c-0.8,2.3-1.5,3.8-2,4.7c-0.6,1.2-1.3,2-2.1,2.5c-0.8,0.5-1.8,0.8-2.9,0.8C565.2,60.6,564.4,60.5,563.6,60.2z"/>
			<path d="M597.9,45.5l3.6,0.4c-0.6,2.1-1.6,3.8-3.2,4.9c-1.6,1.2-3.5,1.8-5.9,1.8c-3,0-5.4-0.9-7.2-2.8c-1.8-1.9-2.7-4.5-2.7-7.9
				c0-3.5,0.9-6.2,2.7-8.1c1.8-1.9,4.1-2.9,7-2.9c2.8,0,5,0.9,6.8,2.8c1.8,1.9,2.6,4.5,2.6,8c0,0.2,0,0.5,0,0.9h-15.5
				c0.1,2.3,0.8,4,1.9,5.2c1.2,1.2,2.6,1.8,4.3,1.8c1.3,0,2.4-0.3,3.3-1C596.7,48.1,597.4,47,597.9,45.5z M586.4,39.8H598
				c-0.2-1.7-0.6-3.1-1.3-3.9c-1.1-1.4-2.6-2-4.4-2c-1.6,0-3,0.5-4.1,1.6C587.1,36.6,586.5,38,586.4,39.8z"/>
			<path d="M604.6,46l3.5-0.5c0.2,1.4,0.7,2.5,1.6,3.2c0.9,0.7,2.1,1.1,3.7,1.1c1.6,0,2.8-0.3,3.6-1c0.8-0.7,1.2-1.4,1.2-2.3
				c0-0.8-0.3-1.4-1-1.9c-0.5-0.3-1.7-0.7-3.6-1.2c-2.6-0.7-4.4-1.2-5.4-1.7c-1-0.5-1.8-1.1-2.3-2c-0.5-0.8-0.8-1.8-0.8-2.8
				c0-0.9,0.2-1.8,0.6-2.6c0.4-0.8,1-1.4,1.7-2c0.5-0.4,1.3-0.7,2.2-1c0.9-0.3,2-0.4,3-0.4c1.6,0,3.1,0.2,4.3,0.7s2.1,1.1,2.7,1.9
				s1,1.9,1.2,3.2l-3.4,0.5c-0.2-1.1-0.6-1.9-1.4-2.5c-0.8-0.6-1.8-0.9-3.2-0.9c-1.6,0-2.8,0.3-3.5,0.8c-0.7,0.5-1,1.2-1,1.9
				c0,0.5,0.1,0.9,0.4,1.2c0.3,0.4,0.7,0.7,1.3,0.9c0.4,0.1,1.4,0.4,3.1,0.9c2.5,0.7,4.2,1.2,5.2,1.6c1,0.4,1.8,1,2.3,1.8
				c0.6,0.8,0.8,1.8,0.8,3c0,1.2-0.3,2.3-1,3.3s-1.7,1.8-3,2.4s-2.7,0.8-4.4,0.8c-2.7,0-4.8-0.6-6.2-1.7
				C605.9,49.9,605,48.2,604.6,46z"/>
			<path d="M626,27.6v-4h3.5v4H626z M626,52.2V31.4h3.5v20.7H626z"/>
			<path d="M648.4,49.6c-1.3,1.1-2.6,1.9-3.8,2.3c-1.2,0.5-2.5,0.7-3.9,0.7c-2.3,0-4-0.6-5.3-1.7c-1.2-1.1-1.8-2.5-1.8-4.3
				c0-1,0.2-1.9,0.7-2.8c0.5-0.8,1.1-1.5,1.8-2c0.7-0.5,1.6-0.9,2.5-1.2c0.7-0.2,1.7-0.4,3.1-0.5c2.8-0.3,4.9-0.7,6.3-1.2
				c0-0.5,0-0.8,0-0.9c0-1.4-0.3-2.4-1-3c-0.9-0.8-2.2-1.2-4-1.2c-1.7,0-2.9,0.3-3.7,0.9c-0.8,0.6-1.4,1.6-1.7,3.1l-3.4-0.5
				c0.3-1.5,0.8-2.7,1.5-3.6c0.7-0.9,1.8-1.6,3.1-2.1c1.4-0.5,2.9-0.7,4.7-0.7c1.8,0,3.2,0.2,4.3,0.6c1.1,0.4,1.9,0.9,2.4,1.6
				c0.5,0.6,0.9,1.4,1.1,2.4c0.1,0.6,0.2,1.7,0.2,3.2v4.7c0,3.3,0.1,5.3,0.2,6.2c0.1,0.9,0.4,1.7,0.9,2.5h-3.7
				C648.7,51.5,648.5,50.6,648.4,49.6z M648.1,41.8c-1.3,0.5-3.2,1-5.7,1.3c-1.4,0.2-2.5,0.4-3.1,0.7c-0.6,0.3-1.1,0.6-1.4,1.1
				c-0.3,0.5-0.5,1.1-0.5,1.7c0,0.9,0.4,1.7,1.1,2.3c0.7,0.6,1.7,0.9,3.1,0.9c1.4,0,2.6-0.3,3.6-0.9c1.1-0.6,1.8-1.4,2.3-2.4
				c0.4-0.8,0.6-2,0.6-3.5V41.8z"/>
			<path d="M657.1,52.2V31.4h3.2v2.9c1.5-2.3,3.7-3.4,6.6-3.4c1.2,0,2.4,0.2,3.4,0.7c1,0.4,1.8,1,2.4,1.8c0.5,0.7,0.9,1.6,1.1,2.6
				c0.1,0.7,0.2,1.8,0.2,3.4v12.8h-3.5V39.6c0-1.4-0.1-2.5-0.4-3.2c-0.3-0.7-0.8-1.3-1.5-1.7c-0.7-0.4-1.5-0.6-2.5-0.6
				c-1.5,0-2.8,0.5-3.9,1.4c-1.1,1-1.6,2.8-1.6,5.4v11.3H657.1z"/>
			<path d="M696.5,52.2V26.9h-9.4v-3.4h22.7v3.4h-9.5v25.3H696.5z"/>
			<path d="M727.4,45.5L731,46c-0.6,2.1-1.6,3.8-3.2,4.9c-1.5,1.2-3.5,1.8-5.9,1.8c-3,0-5.4-0.9-7.2-2.8c-1.8-1.9-2.7-4.5-2.7-7.9
				c0-3.5,0.9-6.2,2.7-8.1c1.8-1.9,4.1-2.9,7-2.9c2.8,0,5,0.9,6.8,2.8c1.8,1.9,2.6,4.5,2.6,8c0,0.2,0,0.5,0,0.9h-15.5
				c0.1,2.3,0.8,4,1.9,5.2c1.2,1.2,2.6,1.8,4.3,1.8c1.3,0,2.4-0.3,3.3-1C726.2,48.1,726.9,47,727.4,45.5z M715.9,39.8h11.6
				c-0.2-1.7-0.6-3.1-1.3-3.9c-1.1-1.4-2.6-2-4.4-2c-1.6,0-3,0.5-4.1,1.6C716.6,36.6,716,38,715.9,39.8z"/>
			<path d="M734,46l3.5-0.5c0.2,1.4,0.7,2.5,1.6,3.2c0.9,0.7,2.1,1.1,3.7,1.1c1.6,0,2.8-0.3,3.6-1c0.8-0.7,1.2-1.4,1.2-2.3
				c0-0.8-0.3-1.4-1-1.9c-0.5-0.3-1.7-0.7-3.6-1.2c-2.6-0.7-4.4-1.2-5.4-1.7c-1-0.5-1.8-1.1-2.3-2c-0.5-0.8-0.8-1.8-0.8-2.8
				c0-0.9,0.2-1.8,0.6-2.6c0.4-0.8,1-1.4,1.7-2c0.5-0.4,1.3-0.7,2.2-1c0.9-0.3,2-0.4,3-0.4c1.6,0,3.1,0.2,4.3,0.7s2.1,1.1,2.7,1.9
				s1,1.9,1.2,3.2l-3.4,0.5c-0.2-1.1-0.6-1.9-1.4-2.5c-0.7-0.6-1.8-0.9-3.2-0.9c-1.6,0-2.8,0.3-3.5,0.8c-0.7,0.5-1,1.2-1,1.9
				c0,0.5,0.1,0.9,0.4,1.2c0.3,0.4,0.7,0.7,1.3,0.9c0.4,0.1,1.4,0.4,3.1,0.9c2.5,0.7,4.2,1.2,5.2,1.6c1,0.4,1.8,1,2.3,1.8
				c0.6,0.8,0.8,1.8,0.8,3c0,1.2-0.3,2.3-1,3.3s-1.7,1.8-3,2.4s-2.7,0.8-4.4,0.8c-2.7,0-4.7-0.6-6.2-1.7
				C735.3,49.9,734.4,48.2,734,46z"/>
			<path d="M763.1,49l0.5,3.1c-1,0.2-1.9,0.3-2.7,0.3c-1.3,0-2.3-0.2-3-0.6s-1.2-0.9-1.5-1.6c-0.3-0.7-0.4-2-0.4-4.2V34.2h-2.6v-2.7
				h2.6v-5.1l3.5-2.1v7.2h3.5v2.7h-3.5v12.1c0,1,0.1,1.6,0.2,1.9c0.1,0.3,0.3,0.5,0.6,0.7c0.3,0.2,0.7,0.3,1.2,0.3
				C762,49.2,762.5,49.1,763.1,49z"/>
			<path d="M782.7,60.6c-1.9-2.4-3.6-5.3-4.9-8.6c-1.3-3.3-2-6.7-2-10.2c0-3.1,0.5-6.1,1.5-8.9c1.2-3.3,3-6.6,5.4-9.8h2.5
				c-1.6,2.7-2.6,4.6-3.1,5.8c-0.8,1.8-1.4,3.7-1.9,5.6c-0.6,2.4-0.8,4.9-0.8,7.3c0,6.3,1.9,12.5,5.8,18.8H782.7z"/>
			<path d="M789.8,52.2V23.6h10.8c1.9,0,3.4,0.1,4.4,0.3c1.4,0.2,2.6,0.7,3.5,1.3c0.9,0.7,1.7,1.6,2.3,2.8c0.6,1.2,0.9,2.5,0.9,3.9
				c0,2.4-0.8,4.5-2.3,6.2c-1.6,1.7-4.3,2.5-8.4,2.5h-7.3v11.6H789.8z M793.5,37.2h7.4c2.4,0,4.2-0.5,5.2-1.4c1-0.9,1.5-2.2,1.5-3.8
				c0-1.2-0.3-2.2-0.9-3.1c-0.6-0.9-1.4-1.4-2.4-1.7c-0.6-0.2-1.8-0.3-3.5-0.3h-7.3V37.2z"/>
			<path d="M816.3,52.2V23.6H827c2.2,0,3.9,0.3,5.3,0.9c1.3,0.6,2.4,1.5,3.1,2.7c0.7,1.2,1.1,2.5,1.1,3.8c0,1.2-0.3,2.4-1,3.5
				c-0.7,1.1-1.7,2-3,2.6c1.7,0.5,3.1,1.4,4,2.6c0.9,1.2,1.4,2.7,1.4,4.3c0,1.3-0.3,2.6-0.8,3.7s-1.3,2-2.1,2.7
				c-0.8,0.6-1.9,1.1-3.1,1.4c-1.3,0.3-2.8,0.5-4.6,0.5H816.3z M820.1,35.6h6.2c1.7,0,2.9-0.1,3.6-0.3c1-0.3,1.7-0.8,2.2-1.4
				s0.7-1.5,0.7-2.5c0-1-0.2-1.8-0.7-2.5c-0.5-0.7-1.1-1.2-2-1.5c-0.8-0.3-2.3-0.4-4.4-0.4h-5.7V35.6z M820.1,48.8h7.1
				c1.2,0,2.1,0,2.6-0.1c0.9-0.2,1.6-0.4,2.2-0.8c0.6-0.4,1.1-0.9,1.4-1.6c0.4-0.7,0.6-1.5,0.6-2.4c0-1.1-0.3-2-0.8-2.8
				c-0.5-0.8-1.3-1.3-2.3-1.7c-1-0.3-2.4-0.5-4.2-0.5h-6.6V48.8z"/>
			<path d="M850.4,52.2V26.9H841v-3.4h22.7v3.4h-9.5v25.3H850.4z"/>
			<path d="M869.4,60.6h-2.5c3.9-6.2,5.8-12.5,5.8-18.8c0-2.4-0.3-4.9-0.8-7.3c-0.4-2-1.1-3.8-1.9-5.6c-0.5-1.2-1.6-3.1-3.1-5.9h2.5
				c2.4,3.3,4.3,6.5,5.4,9.8c1,2.8,1.5,5.8,1.5,8.9c0,3.5-0.7,6.9-2,10.2S871.3,58.2,869.4,60.6z"/>
		</g>
		<rect x="5.5" y="4.5" class="st9" width="16.7" height="23.7"/>
		<text transform="matrix(1 0 0 1 5.48 21.6802)" class="st11 st15">A</text>
	</g>
</g>
<g>
	<defs>
		<rect id="SVGID_00000088820201751446879600000011928066523687025073_" y="432" width="857.8" height="432"/>
	</defs>
	<clipPath id="SVGID_00000073693888405998157160000017663593323104083849_">
		<use xlink:href="#SVGID_00000088820201751446879600000011928066523687025073_"  style="overflow:visible;"/>
	</clipPath>
	<g style="clip-path:url(#SVGID_00000073693888405998157160000017663593323104083849_);">
		<rect y="432" class="st17" width="857.8" height="432"/>
	</g>
</g>
<g>
	<defs>
		<rect id="SVGID_00000129203597913046500770000005206521949942107291_" width="1080" height="864"/>
	</defs>
	<clipPath id="SVGID_00000103232698718652619620000005136811491099106436_">
		<use xlink:href="#SVGID_00000129203597913046500770000005206521949942107291_"  style="overflow:visible;"/>
	</clipPath>
</g>
<g>
	<defs>
		<rect id="SVGID_00000053539891997936751640000012512588156634317983_" x="107.6" y="497.9" width="744.7" height="318.2"/>
	</defs>
	<clipPath id="SVGID_00000109745279905342715200000015503274196105847469_">
		<use xlink:href="#SVGID_00000053539891997936751640000012512588156634317983_"  style="overflow:visible;"/>
	</clipPath>
	<g style="clip-path:url(#SVGID_00000109745279905342715200000015503274196105847469_);">
		<rect x="107.6" y="497.9" class="st0" width="744.7" height="318.2"/>
		<line class="st7" x1="107.6" y1="580.8" x2="852.3" y2="580.8"/>
		<line class="st19" x1="107.6" y1="524.2" x2="852.3" y2="524.2"/>
		<line class="st19" x1="107.6" y1="637.4" x2="852.3" y2="637.4"/>
		
			<ellipse transform="matrix(0.9985 -5.530033e-02 5.530033e-02 0.9985 -43.4787 8.3844)" class="st4" cx="129.8" cy="789.8" rx="7.3" ry="7.3"/>
		<circle class="st4" cx="166.6" cy="774.2" r="7.3"/>
		<circle class="st4" cx="203.5" cy="737.5" r="7.3"/>
		<circle class="st4" cx="240.4" cy="691.4" r="7.3"/>
		<circle class="st4" cx="277.2" cy="767.7" r="7.3"/>
		<circle class="st5" cx="314.1" cy="636" r="7.3"/>
		<circle class="st4" cx="350.9" cy="671.4" r="7.3"/>
		<circle class="st5" cx="387.8" cy="592.2" r="7.3"/>
		<circle class="st5" cx="424.7" cy="612.6" r="7.3"/>
		<circle class="st5" cx="461.5" cy="594.6" r="7.3"/>
		<circle class="st5" cx="498.4" cy="633.5" r="7.3"/>
		<circle class="st4" cx="535.3" cy="710.8" r="7.3"/>
		<circle class="st4" cx="572.1" cy="666" r="7.3"/>
		<circle class="st5" cx="609" cy="623.1" r="7.3"/>
		<circle class="st4" cx="645.8" cy="687.1" r="7.3"/>
		<circle class="st4" cx="682.7" cy="658.2" r="7.3"/>
		<circle class="st4" cx="719.6" cy="668.1" r="7.3"/>
		<circle class="st4" cx="756.4" cy="787.9" r="7.3"/>
		<circle class="st4" cx="793.3" cy="654.1" r="7.3"/>
		<circle class="st4" cx="830.2" cy="739.3" r="7.3"/>
	</g>
</g>
<g>
	<defs>
		<rect id="SVGID_00000102511278960548809360000007272421889317557930_" width="1080" height="864"/>
	</defs>
	<clipPath id="SVGID_00000102528316140422659610000002234120359330540456_">
		<use xlink:href="#SVGID_00000102511278960548809360000007272421889317557930_"  style="overflow:visible;"/>
	</clipPath>
	<g style="clip-path:url(#SVGID_00000102528316140422659610000002234120359330540456_);">
		<line class="st6" x1="107.6" y1="816.1" x2="107.6" y2="497.9"/>
		<g class="st14">
			<path class="st10" d="M75.6,761v-1.4H80v1.4H75.6z"/>
			<path class="st10" d="M86.4,764.5H85v-9c-0.3,0.3-0.8,0.6-1.3,1c-0.5,0.3-1,0.6-1.5,0.7v-1.4c0.8-0.4,1.5-0.8,2.1-1.3
				c0.6-0.5,1-1,1.2-1.5h0.9V764.5z"/>
			<path class="st10" d="M90.8,764.5v-1.6h1.6v1.6H90.8z"/>
			<path class="st10" d="M94.5,761.5l1.5-0.1c0.1,0.7,0.4,1.3,0.8,1.6c0.4,0.4,0.9,0.5,1.4,0.5c0.7,0,1.2-0.3,1.7-0.8
				c0.5-0.5,0.7-1.2,0.7-2c0-0.8-0.2-1.4-0.7-1.9c-0.5-0.5-1-0.7-1.8-0.7c-0.5,0-0.9,0.1-1.2,0.3c-0.4,0.2-0.7,0.5-0.9,0.8l-1.3-0.2
				l1.1-5.9h5.7v1.3H97l-0.6,3.1c0.7-0.5,1.4-0.7,2.2-0.7c1,0,1.8,0.3,2.5,1c0.7,0.7,1,1.6,1,2.7c0,1-0.3,1.9-0.9,2.7
				c-0.7,0.9-1.7,1.4-3,1.4c-1,0-1.9-0.3-2.6-0.9C94.9,763.2,94.6,762.4,94.5,761.5z"/>
		</g>
		<g class="st14">
			<path class="st10" d="M75.6,701.7v-1.4H80v1.4H75.6z"/>
			<path class="st10" d="M86.4,705.2H85v-9c-0.3,0.3-0.8,0.6-1.3,1c-0.5,0.3-1,0.6-1.5,0.7v-1.4c0.8-0.4,1.5-0.8,2.1-1.3
				c0.6-0.5,1-1,1.2-1.5h0.9V705.2z"/>
			<path class="st10" d="M90.8,705.2v-1.6h1.6v1.6H90.8z"/>
			<path class="st10" d="M94.5,699.5c0-1.4,0.1-2.4,0.4-3.3c0.3-0.8,0.7-1.5,1.2-1.9c0.5-0.4,1.2-0.7,2.1-0.7c0.6,0,1.2,0.1,1.6,0.4
				c0.5,0.2,0.8,0.6,1.1,1.1c0.3,0.5,0.5,1,0.7,1.7s0.3,1.6,0.3,2.7c0,1.3-0.1,2.4-0.4,3.3c-0.3,0.8-0.7,1.5-1.2,1.9
				c-0.5,0.5-1.2,0.7-2.1,0.7c-1.1,0-2-0.4-2.6-1.2C94.9,703.2,94.5,701.7,94.5,699.5z M95.9,699.5c0,1.9,0.2,3.1,0.7,3.8
				c0.4,0.6,1,0.9,1.6,0.9c0.6,0,1.2-0.3,1.6-0.9c0.4-0.6,0.7-1.9,0.7-3.8c0-1.9-0.2-3.1-0.7-3.8c-0.4-0.6-1-0.9-1.6-0.9
				c-0.6,0-1.2,0.3-1.5,0.8C96.2,696.4,95.9,697.6,95.9,699.5z"/>
		</g>
		<g class="st14">
			<path class="st10" d="M75.6,642.4V641H80v1.4H75.6z"/>
			<path class="st10" d="M81.1,640.2c0-1.4,0.1-2.4,0.4-3.3c0.3-0.8,0.7-1.5,1.2-1.9c0.5-0.4,1.2-0.7,2.1-0.7c0.6,0,1.2,0.1,1.6,0.4
				c0.5,0.2,0.8,0.6,1.1,1.1c0.3,0.5,0.5,1,0.7,1.7s0.3,1.6,0.3,2.7c0,1.3-0.1,2.4-0.4,3.3c-0.3,0.8-0.7,1.5-1.2,1.9
				c-0.5,0.5-1.2,0.7-2.1,0.7c-1.1,0-2-0.4-2.6-1.2C81.5,643.9,81.1,642.4,81.1,640.2z M82.6,640.2c0,1.9,0.2,3.1,0.7,3.8
				c0.4,0.6,1,0.9,1.6,0.9c0.6,0,1.2-0.3,1.6-0.9c0.4-0.6,0.7-1.9,0.7-3.8c0-1.9-0.2-3.1-0.7-3.8c-0.4-0.6-1-0.9-1.6-0.9
				c-0.6,0-1.2,0.3-1.5,0.8C82.8,637.1,82.6,638.3,82.6,640.2z"/>
			<path class="st10" d="M90.8,645.9v-1.6h1.6v1.6H90.8z"/>
			<path class="st10" d="M94.5,642.9l1.5-0.1c0.1,0.7,0.4,1.3,0.8,1.6s0.9,0.5,1.4,0.5c0.7,0,1.2-0.3,1.7-0.8s0.7-1.2,0.7-2
				c0-0.8-0.2-1.4-0.7-1.9c-0.5-0.5-1-0.7-1.8-0.7c-0.5,0-0.9,0.1-1.2,0.3c-0.4,0.2-0.7,0.5-0.9,0.8l-1.3-0.2l1.1-5.9h5.7v1.3H97
				l-0.6,3.1c0.7-0.5,1.4-0.7,2.2-0.7c1,0,1.8,0.3,2.5,1s1,1.6,1,2.7c0,1-0.3,1.9-0.9,2.7c-0.7,0.9-1.7,1.4-3,1.4
				c-1,0-1.9-0.3-2.6-0.9C94.9,644.6,94.6,643.8,94.5,642.9z"/>
		</g>
		<g class="st14">
			<path class="st10" d="M81.1,580.9c0-1.4,0.1-2.4,0.4-3.3c0.3-0.8,0.7-1.5,1.2-1.9c0.5-0.4,1.2-0.7,2.1-0.7c0.6,0,1.2,0.1,1.6,0.4
				c0.5,0.2,0.8,0.6,1.1,1.1c0.3,0.5,0.5,1,0.7,1.7s0.3,1.6,0.3,2.7c0,1.3-0.1,2.4-0.4,3.3c-0.3,0.8-0.7,1.5-1.2,1.9
				c-0.5,0.5-1.2,0.7-2.1,0.7c-1.1,0-2-0.4-2.6-1.2C81.5,584.6,81.1,583.1,81.1,580.9z M82.6,580.9c0,1.9,0.2,3.1,0.7,3.8
				c0.4,0.6,1,0.9,1.6,0.9c0.6,0,1.2-0.3,1.6-0.9c0.4-0.6,0.7-1.9,0.7-3.8c0-1.9-0.2-3.1-0.7-3.8c-0.4-0.6-1-0.9-1.6-0.9
				c-0.6,0-1.2,0.3-1.5,0.8C82.8,577.7,82.6,579,82.6,580.9z"/>
			<path class="st10" d="M90.8,586.6V585h1.6v1.6H90.8z"/>
			<path class="st10" d="M94.5,580.9c0-1.4,0.1-2.4,0.4-3.3c0.3-0.8,0.7-1.5,1.2-1.9c0.5-0.4,1.2-0.7,2.1-0.7c0.6,0,1.2,0.1,1.6,0.4
				c0.5,0.2,0.8,0.6,1.1,1.1c0.3,0.5,0.5,1,0.7,1.7s0.3,1.6,0.3,2.7c0,1.3-0.1,2.4-0.4,3.3c-0.3,0.8-0.7,1.5-1.2,1.9
				c-0.5,0.5-1.2,0.7-2.1,0.7c-1.1,0-2-0.4-2.6-1.2C94.9,584.6,94.5,583.1,94.5,580.9z M95.9,580.9c0,1.9,0.2,3.1,0.7,3.8
				c0.4,0.6,1,0.9,1.6,0.9c0.6,0,1.2-0.3,1.6-0.9c0.4-0.6,0.7-1.9,0.7-3.8c0-1.9-0.2-3.1-0.7-3.8c-0.4-0.6-1-0.9-1.6-0.9
				c-0.6,0-1.2,0.3-1.5,0.8C96.2,577.7,95.9,579,95.9,580.9z"/>
		</g>
		<g class="st14">
			<path class="st10" d="M81.1,521.6c0-1.4,0.1-2.4,0.4-3.3c0.3-0.8,0.7-1.5,1.2-1.9c0.5-0.4,1.2-0.7,2.1-0.7c0.6,0,1.2,0.1,1.6,0.4
				c0.5,0.2,0.8,0.6,1.1,1.1c0.3,0.5,0.5,1,0.7,1.7s0.3,1.6,0.3,2.7c0,1.3-0.1,2.4-0.4,3.3c-0.3,0.8-0.7,1.5-1.2,1.9
				c-0.5,0.5-1.2,0.7-2.1,0.7c-1.1,0-2-0.4-2.6-1.2C81.5,525.3,81.1,523.8,81.1,521.6z M82.6,521.6c0,1.9,0.2,3.1,0.7,3.8
				c0.4,0.6,1,0.9,1.6,0.9c0.6,0,1.2-0.3,1.6-0.9c0.4-0.6,0.7-1.9,0.7-3.8c0-1.9-0.2-3.1-0.7-3.8c-0.4-0.6-1-0.9-1.6-0.9
				c-0.6,0-1.2,0.3-1.5,0.8C82.8,518.4,82.6,519.7,82.6,521.6z"/>
			<path class="st10" d="M90.8,527.3v-1.6h1.6v1.6H90.8z"/>
			<path class="st10" d="M94.5,524.3l1.5-0.1c0.1,0.7,0.4,1.3,0.8,1.6s0.9,0.5,1.4,0.5c0.7,0,1.2-0.3,1.7-0.8s0.7-1.2,0.7-2
				c0-0.8-0.2-1.4-0.7-1.9c-0.5-0.5-1-0.7-1.8-0.7c-0.5,0-0.9,0.1-1.2,0.3c-0.4,0.2-0.7,0.5-0.9,0.8l-1.3-0.2l1.1-5.9h5.7v1.3H97
				l-0.6,3.1c0.7-0.5,1.4-0.7,2.2-0.7c1,0,1.8,0.3,2.5,1s1,1.6,1,2.7c0,1-0.3,1.9-0.9,2.7c-0.7,0.9-1.7,1.4-3,1.4
				c-1,0-1.9-0.3-2.6-0.9C94.9,526,94.6,525.2,94.5,524.3z"/>
		</g>
		<line class="st13" x1="104.9" y1="758.8" x2="107.6" y2="758.8"/>
		<line class="st13" x1="104.9" y1="699.4" x2="107.6" y2="699.4"/>
		<line class="st13" x1="104.9" y1="640.1" x2="107.6" y2="640.1"/>
		<line class="st13" x1="104.9" y1="580.8" x2="107.6" y2="580.8"/>
		<line class="st13" x1="104.9" y1="521.5" x2="107.6" y2="521.5"/>
		<line class="st6" x1="107.6" y1="816.1" x2="852.3" y2="816.1"/>
		<line class="st13" x1="129.8" y1="818.9" x2="129.8" y2="816.1"/>
		<line class="st13" x1="166.6" y1="818.9" x2="166.6" y2="816.1"/>
		<line class="st13" x1="203.5" y1="818.9" x2="203.5" y2="816.1"/>
		<line class="st13" x1="240.4" y1="818.9" x2="240.4" y2="816.1"/>
		<line class="st13" x1="277.2" y1="818.9" x2="277.2" y2="816.1"/>
		<line class="st13" x1="314.1" y1="818.9" x2="314.1" y2="816.1"/>
		<line class="st13" x1="350.9" y1="818.9" x2="350.9" y2="816.1"/>
		<line class="st13" x1="387.8" y1="818.9" x2="387.8" y2="816.1"/>
		<line class="st13" x1="424.7" y1="818.9" x2="424.7" y2="816.1"/>
		<line class="st13" x1="461.5" y1="818.9" x2="461.5" y2="816.1"/>
		<line class="st13" x1="498.4" y1="818.9" x2="498.4" y2="816.1"/>
		<line class="st13" x1="535.3" y1="818.9" x2="535.3" y2="816.1"/>
		<line class="st13" x1="572.1" y1="818.9" x2="572.1" y2="816.1"/>
		<line class="st13" x1="609" y1="818.9" x2="609" y2="816.1"/>
		<line class="st13" x1="645.8" y1="818.9" x2="645.8" y2="816.1"/>
		<line class="st13" x1="682.7" y1="818.9" x2="682.7" y2="816.1"/>
		<line class="st13" x1="719.6" y1="818.9" x2="719.6" y2="816.1"/>
		<line class="st13" x1="756.4" y1="818.9" x2="756.4" y2="816.1"/>
		<line class="st13" x1="793.3" y1="818.9" x2="793.3" y2="816.1"/>
		<line class="st13" x1="830.2" y1="818.9" x2="830.2" y2="816.1"/>
		<g class="st14">
			<path class="st10" d="M114.5,832.5v-11.5h4.3c0.9,0,1.6,0.1,2.1,0.3c0.5,0.2,0.9,0.6,1.2,1.1c0.3,0.5,0.4,1,0.4,1.5
				c0,0.5-0.1,1-0.4,1.4s-0.7,0.8-1.2,1c0.7,0.2,1.2,0.5,1.6,1c0.4,0.5,0.6,1.1,0.6,1.7c0,0.5-0.1,1-0.3,1.5s-0.5,0.8-0.8,1.1
				c-0.3,0.2-0.8,0.4-1.3,0.6c-0.5,0.1-1.1,0.2-1.8,0.2H114.5z M116,825.9h2.5c0.7,0,1.2,0,1.4-0.1c0.4-0.1,0.7-0.3,0.9-0.6
				s0.3-0.6,0.3-1c0-0.4-0.1-0.7-0.3-1c-0.2-0.3-0.4-0.5-0.8-0.6c-0.3-0.1-0.9-0.2-1.7-0.2H116V825.9z M116,831.2h2.9
				c0.5,0,0.8,0,1-0.1c0.3-0.1,0.6-0.2,0.9-0.3s0.4-0.4,0.6-0.6c0.2-0.3,0.2-0.6,0.2-1c0-0.4-0.1-0.8-0.3-1.1s-0.5-0.5-0.9-0.7
				c-0.4-0.1-0.9-0.2-1.7-0.2H116V831.2z"/>
			<path class="st10" d="M125.2,832.5v-11.5h2.3l2.7,8.1c0.2,0.8,0.4,1.3,0.5,1.7c0.1-0.4,0.3-1,0.6-1.8l2.7-8h2v11.5h-1.5v-9.6
				l-3.3,9.6h-1.4l-3.3-9.8v9.8H125.2z"/>
			<path class="st10" d="M143.3,832.5h-1.4v-9c-0.3,0.3-0.8,0.6-1.3,1c-0.5,0.3-1,0.6-1.5,0.7v-1.4c0.8-0.4,1.5-0.8,2.1-1.3
				c0.6-0.5,1-1,1.2-1.5h0.9V832.5z"/>
		</g>
		<g class="st14">
			<path class="st10" d="M151.4,832.5v-11.5h4.3c0.9,0,1.6,0.1,2.1,0.3c0.5,0.2,0.9,0.6,1.2,1.1c0.3,0.5,0.4,1,0.4,1.5
				c0,0.5-0.1,1-0.4,1.4s-0.7,0.8-1.2,1c0.7,0.2,1.2,0.5,1.6,1c0.4,0.5,0.6,1.1,0.6,1.7c0,0.5-0.1,1-0.3,1.5s-0.5,0.8-0.8,1.1
				c-0.3,0.2-0.8,0.4-1.3,0.6c-0.5,0.1-1.1,0.2-1.8,0.2H151.4z M152.9,825.9h2.5c0.7,0,1.2,0,1.4-0.1c0.4-0.1,0.7-0.3,0.9-0.6
				s0.3-0.6,0.3-1c0-0.4-0.1-0.7-0.3-1c-0.2-0.3-0.4-0.5-0.8-0.6c-0.3-0.1-0.9-0.2-1.7-0.2h-2.3V825.9z M152.9,831.2h2.9
				c0.5,0,0.8,0,1-0.1c0.3-0.1,0.6-0.2,0.9-0.3s0.4-0.4,0.6-0.6c0.2-0.3,0.2-0.6,0.2-1c0-0.4-0.1-0.8-0.3-1.1s-0.5-0.5-0.9-0.7
				c-0.4-0.1-0.9-0.2-1.7-0.2h-2.6V831.2z"/>
			<path class="st10" d="M162,832.5v-11.5h2.3l2.7,8.1c0.2,0.8,0.4,1.3,0.5,1.7c0.1-0.4,0.3-1,0.6-1.8l2.7-8h2v11.5h-1.5v-9.6
				l-3.3,9.6h-1.4l-3.3-9.8v9.8H162z"/>
			<path class="st10" d="M182.2,831.2v1.4h-7.6c0-0.3,0-0.7,0.2-1c0.2-0.5,0.5-1,0.9-1.5c0.4-0.5,1-1.1,1.8-1.7
				c1.2-1,2.1-1.8,2.5-2.4s0.7-1.2,0.7-1.7c0-0.6-0.2-1-0.6-1.4s-0.9-0.6-1.6-0.6c-0.7,0-1.2,0.2-1.6,0.6s-0.6,1-0.6,1.7l-1.4-0.1
				c0.1-1.1,0.5-1.9,1.1-2.5c0.6-0.6,1.5-0.8,2.6-0.8c1.1,0,2,0.3,2.6,0.9s1,1.4,1,2.3c0,0.5-0.1,0.9-0.3,1.4s-0.5,0.9-0.9,1.4
				c-0.4,0.5-1.2,1.2-2.2,2c-0.8,0.7-1.4,1.2-1.6,1.4c-0.2,0.3-0.4,0.5-0.6,0.8H182.2z"/>
		</g>
		<g class="st14">
			<path class="st10" d="M188.2,832.5v-11.5h4.3c0.9,0,1.6,0.1,2.1,0.3c0.5,0.2,0.9,0.6,1.2,1.1c0.3,0.5,0.4,1,0.4,1.5
				c0,0.5-0.1,1-0.4,1.4s-0.7,0.8-1.2,1c0.7,0.2,1.2,0.5,1.6,1c0.4,0.5,0.6,1.1,0.6,1.7c0,0.5-0.1,1-0.3,1.5s-0.5,0.8-0.8,1.1
				c-0.3,0.2-0.8,0.4-1.3,0.6c-0.5,0.1-1.1,0.2-1.8,0.2H188.2z M189.7,825.9h2.5c0.7,0,1.2,0,1.4-0.1c0.4-0.1,0.7-0.3,0.9-0.6
				s0.3-0.6,0.3-1c0-0.4-0.1-0.7-0.3-1c-0.2-0.3-0.4-0.5-0.8-0.6c-0.3-0.1-0.9-0.2-1.7-0.2h-2.3V825.9z M189.7,831.2h2.9
				c0.5,0,0.8,0,1-0.1c0.3-0.1,0.6-0.2,0.9-0.3s0.4-0.4,0.6-0.6c0.2-0.3,0.2-0.6,0.2-1c0-0.4-0.1-0.8-0.3-1.1s-0.5-0.5-0.9-0.7
				c-0.4-0.1-0.9-0.2-1.7-0.2h-2.6V831.2z"/>
			<path class="st10" d="M198.9,832.5v-11.5h2.3l2.7,8.1c0.2,0.8,0.4,1.3,0.5,1.7c0.1-0.4,0.3-1,0.6-1.8l2.7-8h2v11.5h-1.5v-9.6
				l-3.3,9.6h-1.4l-3.3-9.8v9.8H198.9z"/>
			<path class="st10" d="M211.7,829.5l1.4-0.2c0.2,0.8,0.4,1.4,0.8,1.7c0.4,0.4,0.9,0.5,1.4,0.5c0.7,0,1.2-0.2,1.7-0.7
				c0.5-0.5,0.7-1,0.7-1.7c0-0.6-0.2-1.2-0.6-1.6s-1-0.6-1.6-0.6c-0.3,0-0.6,0.1-1,0.2l0.2-1.2c0.1,0,0.2,0,0.2,0
				c0.6,0,1.1-0.2,1.6-0.5c0.5-0.3,0.7-0.8,0.7-1.4c0-0.5-0.2-0.9-0.5-1.3c-0.3-0.3-0.8-0.5-1.4-0.5c-0.5,0-1,0.2-1.4,0.5
				c-0.4,0.3-0.6,0.9-0.7,1.5l-1.4-0.2c0.2-0.9,0.6-1.7,1.2-2.2s1.4-0.8,2.3-0.8c0.6,0,1.2,0.1,1.7,0.4c0.5,0.3,0.9,0.6,1.2,1.1
				c0.3,0.5,0.4,1,0.4,1.5c0,0.5-0.1,0.9-0.4,1.4s-0.7,0.7-1.2,1c0.7,0.2,1.2,0.5,1.6,1s0.6,1.1,0.6,1.8c0,1-0.4,1.8-1.1,2.5
				c-0.7,0.7-1.7,1-2.8,1c-1,0-1.8-0.3-2.5-0.9S211.8,830.5,211.7,829.5z"/>
		</g>
		<rect x="230.1" y="818.8" class="st9" width="20.5" height="18.9"/>
		<text transform="matrix(1 0 0 1 230.1235 832.5303)" class="st10 st11 st12">C2</text>
		<rect x="267" y="818.8" class="st9" width="20.5" height="18.9"/>
		<text transform="matrix(1 0 0 1 266.9937 832.5303)" class="st10 st11 st12">C3</text>
		<text transform="matrix(1 0 0 1 304.744 832.53)" class="st10 st11 st12">F1</text>
		<text transform="matrix(1 0 0 1 341.6041 832.53)" class="st10 st11 st12">F2</text>
		<text transform="matrix(1 0 0 1 378.4741 832.53)" class="st10 st11 st12">F4</text>
		<text transform="matrix(1 0 0 1 415.3341 832.53)" class="st10 st11 st12">F5</text>
		<text transform="matrix(1 0 0 1 452.1941 832.53)" class="st10 st11 st12">F6</text>
		<text transform="matrix(1 0 0 1 489.0641 832.53)" class="st10 st11 st12">F7</text>
		<text transform="matrix(1 0 0 1 525.9241 832.53)" class="st10 st11 st12">F8</text>
		<rect x="561.9" y="818.8" class="st9" width="20.5" height="18.9"/>
		<text transform="matrix(1 0 0 1 561.9033 832.5303)" class="st10 st11 st12">H3</text>
		<rect x="598.8" y="818.8" class="st9" width="20.5" height="18.9"/>
		<text transform="matrix(1 0 0 1 598.7637 832.5303)" class="st10 st11 st12">H4</text>
		<text transform="matrix(1 0 0 1 636.514 832.53)" class="st10 st11 st12">Z1</text>
		<text transform="matrix(1 0 0 1 673.384 832.53)" class="st10 st11 st12">Z2</text>
		<text transform="matrix(1 0 0 1 710.2441 832.53)" class="st10 st11 st12">Z3</text>
		<text transform="matrix(1 0 0 1 747.104 832.53)" class="st10 st11 st12">Z4</text>
		<text transform="matrix(1 0 0 1 783.9741 832.53)" class="st10 st11 st12">Z5</text>
		<text transform="matrix(1 0 0 1 820.834 832.53)" class="st10 st11 st12">Z6</text>
		<g class="st14">
			<path d="M426.1,854v-15.7h11.4v1.9h-9.3v4.8h8.7v1.8h-8.7v5.4h9.7v1.9H426.1z"/>
			<path d="M439.2,854l4.2-5.9l-3.9-5.5h2.4l1.8,2.7c0.3,0.5,0.6,0.9,0.8,1.3c0.3-0.5,0.6-0.9,0.9-1.3l1.9-2.7h2.3l-3.9,5.4l4.2,6
				h-2.4l-2.3-3.5l-0.6-1l-3,4.5H439.2z"/>
			<path d="M451.5,858.4v-15.8h1.8v1.5c0.4-0.6,0.9-1,1.4-1.3c0.5-0.3,1.2-0.4,1.9-0.4c1,0,1.8,0.3,2.6,0.8c0.7,0.5,1.3,1.2,1.7,2.1
				c0.4,0.9,0.6,1.9,0.6,3c0,1.2-0.2,2.2-0.6,3.2c-0.4,0.9-1,1.7-1.8,2.1c-0.8,0.5-1.6,0.7-2.5,0.7c-0.6,0-1.2-0.1-1.7-0.4
				c-0.5-0.3-0.9-0.6-1.3-1v5.6H451.5z M453.2,848.4c0,1.5,0.3,2.6,0.9,3.3c0.6,0.7,1.3,1.1,2.2,1.1c0.9,0,1.6-0.4,2.2-1.1
				c0.6-0.7,0.9-1.9,0.9-3.4c0-1.5-0.3-2.5-0.9-3.3c-0.6-0.7-1.3-1.1-2.1-1.1c-0.8,0-1.6,0.4-2.2,1.2
				C453.5,845.8,453.2,846.9,453.2,848.4z"/>
			<path d="M471.5,850.3l2,0.2c-0.3,1.2-0.9,2.1-1.8,2.7c-0.9,0.6-1.9,1-3.3,1c-1.7,0-3-0.5-4-1.5c-1-1-1.5-2.5-1.5-4.3
				c0-1.9,0.5-3.4,1.5-4.5s2.3-1.6,3.8-1.6c1.5,0,2.8,0.5,3.7,1.6s1.5,2.5,1.5,4.4c0,0.1,0,0.3,0,0.5H465c0.1,1.3,0.4,2.2,1.1,2.9
				c0.6,0.7,1.4,1,2.4,1c0.7,0,1.3-0.2,1.8-0.6C470.8,851.8,471.2,851.2,471.5,850.3z M465.2,847.2h6.4c-0.1-1-0.3-1.7-0.7-2.2
				c-0.6-0.7-1.4-1.1-2.4-1.1c-0.9,0-1.6,0.3-2.2,0.9C465.6,845.4,465.2,846.2,465.2,847.2z"/>
			<path d="M475.9,854v-11.4h1.7v1.7c0.4-0.8,0.9-1.3,1.2-1.6s0.8-0.4,1.2-0.4c0.7,0,1.3,0.2,2,0.6l-0.7,1.8
				c-0.5-0.3-0.9-0.4-1.4-0.4c-0.4,0-0.8,0.1-1.1,0.4c-0.3,0.3-0.6,0.6-0.7,1.1c-0.2,0.7-0.3,1.4-0.3,2.3v6H475.9z"/>
			<path d="M483.3,840.5v-2.2h1.9v2.2H483.3z M483.3,854v-11.4h1.9V854H483.3z"/>
			<path d="M488.1,854v-11.4h1.7v1.6c0.4-0.6,0.8-1,1.4-1.3c0.6-0.3,1.3-0.5,2-0.5c0.8,0,1.5,0.2,2.1,0.5c0.5,0.4,0.9,0.8,1.1,1.5
				c0.9-1.3,2.1-2,3.5-2c1.1,0,2,0.3,2.6,0.9c0.6,0.6,0.9,1.6,0.9,2.9v7.8h-1.9v-7.2c0-0.8-0.1-1.3-0.2-1.7
				c-0.1-0.3-0.4-0.6-0.7-0.8c-0.3-0.2-0.7-0.3-1.2-0.3c-0.8,0-1.5,0.3-2,0.8c-0.5,0.5-0.8,1.4-0.8,2.6v6.6h-1.9v-7.4
				c0-0.9-0.2-1.5-0.5-1.9c-0.3-0.4-0.8-0.6-1.5-0.6c-0.5,0-1,0.1-1.5,0.4s-0.8,0.7-1,1.3c-0.2,0.6-0.3,1.3-0.3,2.4v5.9H488.1z"/>
			<path d="M514.3,850.3l2,0.2c-0.3,1.2-0.9,2.1-1.8,2.7c-0.9,0.6-1.9,1-3.3,1c-1.7,0-3-0.5-4-1.5c-1-1-1.5-2.5-1.5-4.3
				c0-1.9,0.5-3.4,1.5-4.5s2.3-1.6,3.8-1.6c1.5,0,2.8,0.5,3.7,1.6s1.5,2.5,1.5,4.4c0,0.1,0,0.3,0,0.5h-8.5c0.1,1.3,0.4,2.2,1.1,2.9
				c0.6,0.7,1.4,1,2.4,1c0.7,0,1.3-0.2,1.8-0.6C513.6,851.8,514,851.2,514.3,850.3z M507.9,847.2h6.4c-0.1-1-0.3-1.7-0.7-2.2
				c-0.6-0.7-1.4-1.1-2.4-1.1c-0.9,0-1.6,0.3-2.2,0.9C508.3,845.4,508,846.2,507.9,847.2z"/>
			<path d="M518.7,854v-11.4h1.7v1.6c0.8-1.3,2-1.9,3.6-1.9c0.7,0,1.3,0.1,1.9,0.4c0.6,0.2,1,0.6,1.3,1c0.3,0.4,0.5,0.9,0.6,1.4
				c0.1,0.4,0.1,1,0.1,1.9v7H526v-6.9c0-0.8-0.1-1.4-0.2-1.8c-0.2-0.4-0.4-0.7-0.8-0.9c-0.4-0.2-0.8-0.3-1.3-0.3
				c-0.8,0-1.5,0.3-2.1,0.8c-0.6,0.5-0.9,1.5-0.9,3v6.2H518.7z"/>
			<path d="M535.2,852.3l0.3,1.7c-0.5,0.1-1,0.2-1.5,0.2c-0.7,0-1.2-0.1-1.6-0.3s-0.7-0.5-0.8-0.9c-0.2-0.4-0.2-1.1-0.2-2.3v-6.6
				h-1.4v-1.5h1.4v-2.8l1.9-1.2v4h1.9v1.5h-1.9v6.7c0,0.6,0,0.9,0.1,1.1c0.1,0.2,0.2,0.3,0.3,0.4c0.2,0.1,0.4,0.1,0.7,0.1
				C534.5,852.4,534.8,852.3,535.2,852.3z"/>
		</g>
		<g class="st14">
			<path d="M38.7,701.4H22.9v-1.9h15.7V701.4z"/>
			<path d="M32.9,697.2c-2.1,0-3.7-0.6-4.7-1.8c-0.8-1-1.3-2.2-1.3-3.6c0-1.6,0.5-2.8,1.5-3.8c1-1,2.4-1.5,4.3-1.5
				c1.5,0,2.6,0.2,3.5,0.7c0.8,0.4,1.5,1.1,2,1.9c0.5,0.8,0.7,1.8,0.7,2.8c0,1.6-0.5,2.9-1.5,3.9S34.9,697.2,32.9,697.2z
				 M32.9,695.2c1.5,0,2.6-0.3,3.3-1c0.7-0.6,1.1-1.4,1.1-2.4c0-1-0.4-1.8-1.1-2.4s-1.8-1-3.3-1c-1.4,0-2.5,0.3-3.2,1
				c-0.7,0.6-1.1,1.4-1.1,2.4c0,1,0.4,1.8,1.1,2.4C30.4,694.9,31.5,695.2,32.9,695.2z"/>
			<path d="M39.6,684.6l0.3-1.9c0.6-0.1,1-0.3,1.3-0.7c0.4-0.5,0.5-1.1,0.5-2c0-0.9-0.2-1.6-0.5-2.1s-0.9-0.8-1.5-1
				c-0.4-0.1-1.2-0.1-2.5-0.1c1,0.8,1.5,1.9,1.5,3.2c0,1.6-0.6,2.8-1.7,3.6s-2.5,1.3-4.1,1.3c-1.1,0-2.1-0.2-3-0.6
				c-0.9-0.4-1.6-1-2.1-1.7S27,681,27,680c0-1.3,0.5-2.5,1.6-3.3h-1.4v-1.8h9.9c1.8,0,3,0.2,3.8,0.5c0.7,0.4,1.3,0.9,1.8,1.7
				c0.4,0.8,0.6,1.8,0.6,2.9c0,1.4-0.3,2.5-0.9,3.3C41.8,684.2,40.8,684.6,39.6,684.6z M32.7,683c1.5,0,2.6-0.3,3.3-0.9s1-1.3,1-2.2
				c0-0.9-0.3-1.6-1-2.2c-0.7-0.6-1.8-0.9-3.2-0.9c-1.4,0-2.4,0.3-3.2,0.9c-0.7,0.6-1.1,1.4-1.1,2.2c0,0.9,0.3,1.6,1,2.2
				C30.3,682.7,31.4,683,32.7,683z"/>
		</g>
		<text transform="matrix(6.123234e-17 -1 1 6.123234e-17 45.41 673.5303)" class="st11 st21">10</text>
		<g class="st14">
			<path d="M43.3,648.9c-1.3,1.1-2.9,2-4.7,2.7c-1.8,0.7-3.7,1.1-5.6,1.1c-1.7,0-3.3-0.3-4.9-0.8c-1.8-0.6-3.6-1.6-5.4-3v-1.4
				c1.5,0.9,2.6,1.4,3.2,1.7c1,0.4,2,0.8,3.1,1c1.3,0.3,2.7,0.5,4,0.5c3.4,0,6.9-1.1,10.3-3.2V648.9z"/>
			<path d="M38.7,645.1H22.9v-5.9c0-1.2,0.2-2.2,0.5-2.9c0.3-0.7,0.8-1.3,1.5-1.7c0.7-0.4,1.4-0.6,2.1-0.6c0.7,0,1.3,0.2,1.9,0.5
				s1.1,0.9,1.4,1.7c0.3-1,0.8-1.7,1.4-2.2c0.7-0.5,1.5-0.8,2.4-0.8c0.7,0,1.4,0.2,2.1,0.5c0.6,0.3,1.1,0.7,1.5,1.2s0.6,1,0.8,1.7
				c0.2,0.7,0.3,1.5,0.3,2.5V645.1z M29.5,643v-3.4c0-0.9-0.1-1.6-0.2-2c-0.2-0.5-0.4-0.9-0.8-1.2c-0.4-0.3-0.8-0.4-1.4-0.4
				c-0.5,0-1,0.1-1.4,0.4c-0.4,0.3-0.7,0.6-0.8,1.1c-0.1,0.5-0.2,1.3-0.2,2.4v3.1H29.5z M36.8,643v-3.9c0-0.7,0-1.1-0.1-1.4
				c-0.1-0.5-0.2-0.9-0.4-1.2s-0.5-0.6-0.9-0.8c-0.4-0.2-0.8-0.3-1.3-0.3c-0.6,0-1.1,0.2-1.5,0.5c-0.4,0.3-0.7,0.7-0.9,1.3
				c-0.2,0.5-0.3,1.3-0.3,2.3v3.6H36.8z"/>
			<path d="M38.7,630.2H22.9v-10.6h1.9v8.5h4.9v-7.4h1.9v7.4h7.2V630.2z"/>
			<path d="M43.3,615.9v1.4c-3.4-2.1-6.9-3.2-10.3-3.2c-1.3,0-2.7,0.2-4,0.5c-1.1,0.2-2.1,0.6-3.1,1c-0.6,0.3-1.7,0.9-3.2,1.7v-1.4
				c1.8-1.3,3.6-2.3,5.4-3c1.6-0.6,3.2-0.8,4.9-0.8c1.9,0,3.8,0.4,5.6,1.1C40.4,613.9,41.9,614.8,43.3,615.9z"/>
		</g>
		<g class="st14">
			<path d="M66.7,714.5l0.2-2c0.4,0,0.8,0,1-0.2c0.2-0.1,0.4-0.3,0.5-0.6c0.2-0.4,0.2-0.8,0.2-1.4c0-1.2-0.3-2-0.9-2.5
				c-0.4-0.3-1.3-0.6-2.7-0.9l-0.9-0.2c1,1,1.5,2.1,1.5,3.2c0,1.2-0.4,2.1-1.3,2.9c-0.8,0.8-2,1.2-3.6,1.2c-1.3,0-2.5-0.3-3.5-0.9
				c-1.1-0.6-1.9-1.3-2.4-2.2c-0.5-0.8-0.8-1.7-0.8-2.6c0-1.5,0.7-2.6,2.1-3.5l-1.9-0.4v-1.8l11,2.3c1.2,0.3,2.2,0.6,2.8,1
				c0.7,0.4,1.2,1,1.6,1.7s0.6,1.6,0.6,2.5c0,0.9-0.1,1.7-0.4,2.4c-0.2,0.7-0.6,1.2-1,1.5c-0.5,0.3-1,0.5-1.6,0.5
				C67.1,714.6,66.9,714.6,66.7,714.5z M60.6,712.1c0.8,0,1.4-0.1,1.8-0.2c0.6-0.2,1-0.5,1.3-0.9c0.3-0.4,0.4-0.8,0.4-1.3
				c0-0.6-0.2-1.3-0.7-1.9c-0.4-0.6-1.1-1.1-2.1-1.5s-1.8-0.6-2.7-0.6c-0.9,0-1.7,0.3-2.2,0.8c-0.6,0.5-0.8,1.2-0.8,1.9
				c0,0.5,0.1,0.9,0.4,1.4c0.3,0.4,0.6,0.9,1.2,1.2c0.5,0.4,1.1,0.7,1.9,0.9S60.2,712.1,60.6,712.1z"/>
			<path d="M65.7,702.3l-15.7-3.3v-1.9l15.7,3.3V702.3z"/>
			<path d="M61.3,697c-2.2,0-4.1-0.7-5.5-2c-1.2-1.1-1.8-2.5-1.8-4.3c0-1.4,0.4-2.5,1.3-3.3c0.9-0.8,2-1.3,3.5-1.3
				c1.3,0,2.5,0.3,3.7,0.8c1.1,0.5,2,1.3,2.6,2.3c0.6,1,0.9,2,0.9,3.1c0,0.9-0.2,1.7-0.6,2.4c-0.4,0.7-0.9,1.3-1.6,1.7
				S62.2,697,61.3,697z M61.1,695c1.1,0,1.9-0.3,2.4-0.8c0.6-0.5,0.8-1.2,0.8-2c0-0.4-0.1-0.8-0.3-1.2c-0.2-0.4-0.4-0.8-0.8-1.1
				s-0.7-0.6-1.2-0.9c-0.4-0.2-0.9-0.4-1.4-0.6c-0.7-0.2-1.4-0.3-2-0.3c-1,0-1.8,0.3-2.4,0.8c-0.6,0.5-0.9,1.2-0.9,2
				c0,0.6,0.1,1.2,0.4,1.7c0.3,0.5,0.7,1,1.3,1.4c0.6,0.4,1.2,0.7,2,0.9C59.9,694.9,60.6,695,61.1,695z"/>
			<path d="M65.7,685.1l-15.7-3.3v-1.9l5.6,1.2c-0.6-0.6-1-1.2-1.2-1.7c-0.2-0.5-0.3-1-0.3-1.6c0-1.1,0.4-2,1.2-2.7s2-1.1,3.5-1.1
				c1,0,1.9,0.1,2.8,0.4s1.5,0.6,2.1,1.1c0.6,0.4,1,0.9,1.4,1.3c0.3,0.5,0.6,0.9,0.8,1.4c0.2,0.5,0.3,0.9,0.3,1.4
				c0,0.8-0.2,1.4-0.6,2c-0.4,0.6-1,1-1.8,1.3l2.2,0.5V685.1z M61,682.2l0.4,0c1,0,1.7-0.2,2.2-0.7s0.8-1,0.8-1.7
				c0-0.7-0.2-1.3-0.7-1.9c-0.5-0.6-1.2-1-2.2-1.4s-1.9-0.5-2.8-0.5c-1,0-1.7,0.2-2.2,0.7c-0.5,0.5-0.8,1-0.8,1.7
				c0,0.7,0.3,1.3,0.8,1.9c0.5,0.6,1.4,1.1,2.5,1.5C59.7,682,60.4,682.2,61,682.2z"/>
			<path d="M64.2,665.1c0.6,0.7,1,1.3,1.3,1.9c0.3,0.6,0.4,1.3,0.4,2c0,1.1-0.3,1.9-0.9,2.5c-0.6,0.6-1.4,1-2.4,1
				c-0.6,0-1.2-0.1-1.7-0.4c-0.5-0.3-0.9-0.7-1.2-1.2c-0.3-0.5-0.5-1.1-0.6-1.8c-0.1-0.4-0.2-1.3-0.2-2.5s-0.2-2.1-0.4-2.6
				c-0.5-0.2-1-0.2-1.3-0.2c-0.5,0-0.8,0.2-1.1,0.5c-0.4,0.5-0.5,1.1-0.5,2c0,0.8,0.2,1.5,0.5,2c0.4,0.5,0.9,0.9,1.5,1.1l-0.2,2
				c-1.1-0.4-2-1-2.6-1.9c-0.6-0.9-0.9-2-0.9-3.3c0-1.4,0.3-2.5,1-3.4c0.5-0.6,1.2-0.9,2-0.9c0.6,0,1.3,0.1,2.1,0.3l2.8,0.6
				c0.9,0.2,1.6,0.3,2.2,0.3c0.4,0,0.9-0.1,1.5-0.2v2C65.3,665,64.8,665.1,64.2,665.1z M59.9,664.4c0.1,0.3,0.2,0.6,0.2,0.9
				c0.1,0.3,0.1,0.8,0.2,1.6c0.1,1.1,0.2,1.9,0.4,2.4c0.2,0.5,0.4,0.8,0.7,1.1s0.7,0.4,1.1,0.4c0.5,0,1-0.2,1.3-0.6
				c0.4-0.4,0.5-0.9,0.5-1.6c0-0.6-0.2-1.3-0.5-1.9c-0.3-0.6-0.8-1.1-1.4-1.4S61,664.6,59.9,664.4z"/>
			<path d="M65.7,660.8l-15.7-3.3v-1.9l15.7,3.3V660.8z"/>
		</g>
		<g class="st14">
			<path d="M65.7,649.9l-11.4-2.4v-1.8l2,0.4c-0.8-0.8-1.3-1.5-1.7-2.1s-0.5-1.3-0.5-2c0-0.9,0.3-1.6,0.8-2.2c0.5-0.5,1.2-0.8,2-0.8
				c0.4,0,1.1,0.1,2,0.3l6.9,1.5v1.9l-7.2-1.5c-0.7-0.2-1.2-0.2-1.6-0.2c-0.4,0-0.7,0.1-0.9,0.4c-0.2,0.3-0.4,0.6-0.4,1.1
				c0,1,0.4,1.9,1.1,2.7s1.9,1.3,3.7,1.7l5.3,1.1V649.9z"/>
			<path d="M63.6,629.9c1.5,1.4,2.3,2.8,2.3,4.2c0,0.9-0.3,1.6-0.8,2.1c-0.5,0.5-1.1,0.8-1.9,0.8c-0.5,0-1.3-0.1-2.5-0.4l-6.6-1.4
				v-1.9l7.3,1.5c0.6,0.1,1.1,0.2,1.4,0.2c0.4,0,0.8-0.1,1-0.4c0.2-0.3,0.4-0.6,0.4-1.2c0-0.5-0.1-1.1-0.4-1.6
				c-0.3-0.5-0.6-1-1.1-1.3c-0.5-0.4-1-0.7-1.6-0.9c-0.4-0.2-1.1-0.3-2.1-0.5l-4.9-1v-1.9l11.4,2.4v1.8L63.6,629.9z"/>
			<path d="M65.7,625.6l-15.7-3.3v-1.9l15.7,3.3V625.6z"/>
			<path d="M65.7,620.7l-15.7-3.3v-1.9l15.7,3.3V620.7z"/>
		</g>
		<rect x="46.8" y="599.2" class="st9" width="26" height="11"/>
		<text transform="matrix(6.123234e-17 -1 1 6.123234e-17 65.66 610.1602)" class="st11 st22"></text>
		<g class="st14">
			<path d="M145,481.1c1.8,1.2,3.4,2.1,4.9,2.7l-1.1,2.6c-2.1-0.7-4.1-1.9-6.2-3.5c-2.1,1.2-4.5,1.8-7,1.8c-2.6,0-4.9-0.6-7.1-1.9
				s-3.7-3-4.9-5.3c-1.1-2.3-1.7-4.8-1.7-7.7c0-2.8,0.6-5.4,1.7-7.7c1.1-2.3,2.8-4.1,4.9-5.3c2.1-1.2,4.5-1.8,7.1-1.8
				c2.6,0,5,0.6,7.1,1.9c2.1,1.3,3.7,3,4.9,5.3c1.1,2.3,1.7,4.8,1.7,7.6c0,2.4-0.4,4.5-1.1,6.4C147.5,478.1,146.4,479.7,145,481.1z
				 M136.6,476.3c2.2,0.6,4,1.5,5.4,2.7c2.2-2,3.3-5.1,3.3-9.2c0-2.3-0.4-4.3-1.2-6.1c-0.8-1.7-1.9-3.1-3.5-4
				c-1.5-1-3.2-1.4-5.1-1.4c-2.8,0-5.2,1-7,2.9c-1.9,1.9-2.8,4.8-2.8,8.7c0,3.7,0.9,6.6,2.8,8.6c1.8,2,4.2,3,7.1,3
				c1.4,0,2.6-0.3,3.8-0.8c-1.2-0.8-2.4-1.3-3.8-1.6L136.6,476.3z"/>
			<path d="M167.5,484.2v-3c-1.6,2.3-3.8,3.5-6.6,3.5c-1.2,0-2.4-0.2-3.4-0.7c-1.1-0.5-1.8-1.1-2.4-1.8c-0.5-0.7-0.9-1.6-1.1-2.6
				c-0.1-0.7-0.2-1.8-0.2-3.3v-12.9h3.5V475c0,1.8,0.1,3.1,0.2,3.7c0.2,0.9,0.7,1.7,1.4,2.2c0.7,0.5,1.6,0.8,2.7,0.8s2-0.3,3-0.8
				c0.9-0.5,1.6-1.3,2-2.2c0.4-0.9,0.6-2.3,0.6-4.1v-11.1h3.5v20.7H167.5z"/>
			<path d="M189.7,481.6c-1.3,1.1-2.6,1.9-3.8,2.3c-1.2,0.5-2.5,0.7-3.9,0.7c-2.3,0-4-0.6-5.3-1.7c-1.2-1.1-1.8-2.5-1.8-4.3
				c0-1,0.2-1.9,0.7-2.8c0.5-0.8,1.1-1.5,1.8-2c0.7-0.5,1.6-0.9,2.5-1.2c0.7-0.2,1.7-0.4,3.1-0.5c2.8-0.3,4.9-0.7,6.3-1.2
				c0-0.5,0-0.8,0-0.9c0-1.4-0.3-2.4-1-3c-0.9-0.8-2.2-1.2-4-1.2c-1.7,0-2.9,0.3-3.7,0.9c-0.8,0.6-1.4,1.6-1.7,3.1l-3.4-0.5
				c0.3-1.5,0.8-2.7,1.5-3.6c0.7-0.9,1.8-1.6,3.1-2.1c1.4-0.5,2.9-0.7,4.7-0.7c1.8,0,3.2,0.2,4.3,0.6c1.1,0.4,1.9,0.9,2.4,1.6
				c0.5,0.6,0.9,1.4,1.1,2.4c0.1,0.6,0.2,1.7,0.2,3.2v4.7c0,3.3,0.1,5.3,0.2,6.2c0.1,0.9,0.4,1.7,0.9,2.5h-3.7
				C190.1,483.5,189.8,482.6,189.7,481.6z M189.4,473.8c-1.3,0.5-3.2,1-5.7,1.3c-1.4,0.2-2.5,0.4-3.1,0.7c-0.6,0.3-1.1,0.6-1.4,1.1
				c-0.3,0.5-0.5,1.1-0.5,1.7c0,0.9,0.4,1.7,1.1,2.3c0.7,0.6,1.7,0.9,3.1,0.9c1.4,0,2.6-0.3,3.6-0.9c1.1-0.6,1.8-1.4,2.3-2.4
				c0.4-0.8,0.6-2,0.6-3.5V473.8z"/>
			<path d="M198.4,484.2v-28.6h3.5v28.6H198.4z"/>
			<path d="M207.3,459.6v-4h3.5v4H207.3z M207.3,484.2v-20.7h3.5v20.7H207.3z"/>
			<path d="M223.9,481l0.5,3.1c-1,0.2-1.9,0.3-2.7,0.3c-1.3,0-2.3-0.2-3-0.6c-0.7-0.4-1.2-0.9-1.5-1.6c-0.3-0.7-0.4-2-0.4-4.2v-11.9
				h-2.6v-2.7h2.6v-5.1l3.5-2.1v7.2h3.5v2.7h-3.5v12.1c0,1,0.1,1.6,0.2,1.9c0.1,0.3,0.3,0.5,0.6,0.7c0.3,0.2,0.7,0.3,1.2,0.3
				C222.7,481.2,223.2,481.1,223.9,481z"/>
			<path d="M240.9,481.6c-1.3,1.1-2.6,1.9-3.8,2.3c-1.2,0.5-2.5,0.7-3.9,0.7c-2.3,0-4-0.6-5.3-1.7c-1.2-1.1-1.8-2.5-1.8-4.3
				c0-1,0.2-1.9,0.7-2.8c0.5-0.8,1.1-1.5,1.8-2c0.7-0.5,1.6-0.9,2.5-1.2c0.7-0.2,1.7-0.4,3.1-0.5c2.8-0.3,4.9-0.7,6.3-1.2
				c0-0.5,0-0.8,0-0.9c0-1.4-0.3-2.4-1-3c-0.9-0.8-2.2-1.2-4-1.2c-1.7,0-2.9,0.3-3.7,0.9c-0.8,0.6-1.4,1.6-1.7,3.1l-3.4-0.5
				c0.3-1.5,0.8-2.7,1.5-3.6c0.7-0.9,1.8-1.6,3.1-2.1c1.4-0.5,2.9-0.7,4.7-0.7c1.8,0,3.2,0.2,4.3,0.6c1.1,0.4,1.9,0.9,2.4,1.6
				c0.5,0.6,0.9,1.4,1.1,2.4c0.1,0.6,0.2,1.7,0.2,3.2v4.7c0,3.3,0.1,5.3,0.2,6.2c0.1,0.9,0.4,1.7,0.9,2.5h-3.7
				C241.2,483.5,241,482.6,240.9,481.6z M240.6,473.8c-1.3,0.5-3.2,1-5.7,1.3c-1.4,0.2-2.5,0.4-3.1,0.7c-0.6,0.3-1.1,0.6-1.4,1.1
				c-0.3,0.5-0.5,1.1-0.5,1.7c0,0.9,0.4,1.7,1.1,2.3c0.7,0.6,1.7,0.9,3.1,0.9c1.4,0,2.6-0.3,3.6-0.9c1.1-0.6,1.8-1.4,2.3-2.4
				c0.4-0.8,0.6-2,0.6-3.5V473.8z"/>
			<path d="M257.2,481l0.5,3.1c-1,0.2-1.9,0.3-2.7,0.3c-1.3,0-2.3-0.2-3-0.6c-0.7-0.4-1.2-0.9-1.5-1.6c-0.3-0.7-0.4-2-0.4-4.2v-11.9
				h-2.6v-2.7h2.6v-5.1l3.5-2.1v7.2h3.5v2.7h-3.5v12.1c0,1,0.1,1.6,0.2,1.9c0.1,0.3,0.3,0.5,0.6,0.7c0.3,0.2,0.7,0.3,1.2,0.3
				C256.1,481.2,256.6,481.1,257.2,481z"/>
			<path d="M260.7,459.6v-4h3.5v4H260.7z M260.7,484.2v-20.7h3.5v20.7H260.7z"/>
			<path d="M275.3,484.2l-7.9-20.7h3.7l4.5,12.4c0.5,1.3,0.9,2.7,1.3,4.2c0.3-1.1,0.7-2.4,1.3-3.9l4.6-12.7h3.6l-7.9,20.7H275.3z"/>
			<path d="M303.8,477.5l3.6,0.4c-0.6,2.1-1.6,3.8-3.2,4.9c-1.5,1.2-3.5,1.8-5.9,1.8c-3,0-5.4-0.9-7.2-2.8c-1.8-1.9-2.7-4.5-2.7-7.9
				c0-3.5,0.9-6.2,2.7-8.1c1.8-1.9,4.1-2.9,7-2.9c2.8,0,5,0.9,6.8,2.8c1.8,1.9,2.6,4.5,2.6,8c0,0.2,0,0.5,0,0.9H292
				c0.1,2.3,0.8,4,1.9,5.2c1.2,1.2,2.6,1.8,4.3,1.8c1.3,0,2.4-0.3,3.3-1C302.5,480.1,303.2,479,303.8,477.5z M292.2,471.8h11.6
				c-0.2-1.7-0.6-3.1-1.3-3.9c-1.1-1.4-2.6-2-4.4-2c-1.6,0-3,0.5-4.1,1.6C293,468.6,292.3,470,292.2,471.8z"/>
			<path d="M323.8,484.2v-28.6h3.8v28.6H323.8z"/>
			<path d="M333.8,484.2v-20.7h3.2v2.9c1.5-2.3,3.7-3.4,6.6-3.4c1.2,0,2.4,0.2,3.4,0.7c1,0.4,1.8,1,2.4,1.8c0.5,0.7,0.9,1.6,1.1,2.6
				c0.1,0.7,0.2,1.8,0.2,3.4v12.8h-3.5v-12.6c0-1.4-0.1-2.5-0.4-3.2c-0.3-0.7-0.8-1.3-1.5-1.7c-0.7-0.4-1.5-0.6-2.5-0.6
				c-1.5,0-2.8,0.5-3.9,1.4c-1.1,1-1.6,2.8-1.6,5.4v11.3H333.8z"/>
			<path d="M369.5,484.2v-2.6c-1.3,2.1-3.2,3.1-5.8,3.1c-1.7,0-3.2-0.5-4.6-1.4c-1.4-0.9-2.5-2.2-3.2-3.8c-0.8-1.6-1.1-3.5-1.1-5.6
				c0-2.1,0.3-3.9,1-5.6c0.7-1.7,1.7-3,3.1-3.9c1.4-0.9,2.9-1.3,4.6-1.3c1.2,0,2.4,0.3,3.3,0.8s1.8,1.2,2.4,2.1v-10.3h3.5v28.6
				H369.5z M358.4,473.8c0,2.7,0.6,4.6,1.7,6c1.1,1.3,2.4,2,4,2c1.5,0,2.8-0.6,3.9-1.9c1.1-1.3,1.6-3.2,1.6-5.8
				c0-2.8-0.5-4.9-1.6-6.2s-2.4-2-4-2c-1.6,0-2.9,0.6-3.9,1.9C358.9,469.1,358.4,471.1,358.4,473.8z"/>
			<path d="M378.3,459.6v-4h3.5v4H378.3z M378.3,484.2v-20.7h3.5v20.7H378.3z"/>
			<path d="M393,484.2l-7.9-20.7h3.7l4.5,12.4c0.5,1.3,0.9,2.7,1.3,4.2c0.3-1.1,0.7-2.4,1.3-3.9l4.6-12.7h3.6l-7.9,20.7H393z"/>
			<path d="M407.2,459.6v-4h3.5v4H407.2z M407.2,484.2v-20.7h3.5v20.7H407.2z"/>
			<path d="M429.5,484.2v-2.6c-1.3,2.1-3.2,3.1-5.8,3.1c-1.7,0-3.2-0.5-4.6-1.4c-1.4-0.9-2.5-2.2-3.2-3.8c-0.8-1.6-1.1-3.5-1.1-5.6
				c0-2.1,0.3-3.9,1-5.6c0.7-1.7,1.7-3,3.1-3.9c1.4-0.9,2.9-1.3,4.6-1.3c1.2,0,2.4,0.3,3.3,0.8s1.8,1.2,2.4,2.1v-10.3h3.5v28.6
				H429.5z M418.4,473.8c0,2.7,0.6,4.6,1.7,6c1.1,1.3,2.4,2,4,2c1.5,0,2.8-0.6,3.9-1.9c1.1-1.3,1.6-3.2,1.6-5.8
				c0-2.8-0.5-4.9-1.6-6.2s-2.4-2-4-2c-1.6,0-2.9,0.6-3.9,1.9C419,469.1,418.4,471.1,418.4,473.8z"/>
			<path d="M451.9,484.2v-3c-1.6,2.3-3.8,3.5-6.6,3.5c-1.2,0-2.4-0.2-3.4-0.7c-1.1-0.5-1.8-1.1-2.4-1.8c-0.5-0.7-0.9-1.6-1.1-2.6
				c-0.1-0.7-0.2-1.8-0.2-3.3v-12.9h3.5V475c0,1.8,0.1,3.1,0.2,3.7c0.2,0.9,0.7,1.7,1.4,2.2c0.7,0.5,1.6,0.8,2.7,0.8s2-0.3,3-0.8
				c0.9-0.5,1.6-1.3,2-2.2c0.4-0.9,0.6-2.3,0.6-4.1v-11.1h3.5v20.7H451.9z"/>
			<path d="M474.1,481.6c-1.3,1.1-2.6,1.9-3.8,2.3c-1.2,0.5-2.5,0.7-3.9,0.7c-2.3,0-4-0.6-5.3-1.7c-1.2-1.1-1.8-2.5-1.8-4.3
				c0-1,0.2-1.9,0.7-2.8c0.5-0.8,1.1-1.5,1.8-2c0.7-0.5,1.6-0.9,2.5-1.2c0.7-0.2,1.7-0.4,3.1-0.5c2.8-0.3,4.9-0.7,6.3-1.2
				c0-0.5,0-0.8,0-0.9c0-1.4-0.3-2.4-1-3c-0.9-0.8-2.2-1.2-4-1.2c-1.7,0-2.9,0.3-3.7,0.9c-0.8,0.6-1.4,1.6-1.7,3.1l-3.4-0.5
				c0.3-1.5,0.8-2.7,1.5-3.6c0.7-0.9,1.8-1.6,3.1-2.1c1.4-0.5,2.9-0.7,4.7-0.7c1.8,0,3.2,0.2,4.3,0.6c1.1,0.4,1.9,0.9,2.4,1.6
				c0.5,0.6,0.9,1.4,1.1,2.4c0.1,0.6,0.2,1.7,0.2,3.2v4.7c0,3.3,0.1,5.3,0.2,6.2c0.1,0.9,0.4,1.7,0.9,2.5h-3.7
				C474.5,483.5,474.2,482.6,474.1,481.6z M473.8,473.8c-1.3,0.5-3.2,1-5.7,1.3c-1.4,0.2-2.5,0.4-3.1,0.7c-0.6,0.3-1.1,0.6-1.4,1.1
				c-0.3,0.5-0.5,1.1-0.5,1.7c0,0.9,0.4,1.7,1.1,2.3c0.7,0.6,1.7,0.9,3.1,0.9c1.4,0,2.6-0.3,3.6-0.9c1.1-0.6,1.8-1.4,2.3-2.4
				c0.4-0.8,0.6-2,0.6-3.5V473.8z"/>
			<path d="M482.7,484.2v-28.6h3.5v28.6H482.7z"/>
			<path d="M503.1,484.2v-28.6h9.9c2.2,0,3.9,0.1,5.1,0.4c1.6,0.4,3,1.1,4.2,2.1c1.5,1.3,2.6,2.9,3.4,4.9c0.7,2,1.1,4.3,1.1,6.8
				c0,2.2-0.3,4.1-0.8,5.8s-1.2,3.1-2,4.2c-0.8,1.1-1.7,2-2.6,2.6c-0.9,0.6-2.1,1.1-3.4,1.4c-1.3,0.3-2.9,0.5-4.6,0.5H503.1z
				 M506.8,480.8h6.1c1.9,0,3.4-0.2,4.4-0.5s1.9-0.8,2.6-1.5c0.9-0.9,1.6-2.1,2.1-3.6c0.5-1.5,0.8-3.4,0.8-5.5c0-3-0.5-5.3-1.5-6.9
				c-1-1.6-2.2-2.7-3.6-3.2c-1-0.4-2.6-0.6-4.9-0.6h-6V480.8z"/>
			<path d="M531.5,459.6v-4h3.5v4H531.5z M531.5,484.2v-20.7h3.5v20.7H531.5z"/>
			<path d="M541.2,484.2v-18h-3.1v-2.7h3.1v-2.2c0-1.4,0.1-2.4,0.4-3.1c0.3-0.9,0.9-1.7,1.8-2.2c0.9-0.6,2-0.8,3.6-0.8
				c1,0,2.1,0.1,3.3,0.4l-0.5,3.1c-0.7-0.1-1.4-0.2-2.1-0.2c-1.1,0-1.8,0.2-2.3,0.7c-0.4,0.5-0.7,1.3-0.7,2.6v1.9h4v2.7h-4v18H541.2
				z"/>
			<path d="M552.3,484.2v-18h-3.1v-2.7h3.1v-2.2c0-1.4,0.1-2.4,0.4-3.1c0.3-0.9,0.9-1.7,1.8-2.2c0.9-0.6,2-0.8,3.6-0.8
				c1,0,2.1,0.1,3.3,0.4l-0.5,3.1c-0.7-0.1-1.4-0.2-2.1-0.2c-1.1,0-1.8,0.2-2.3,0.7c-0.4,0.5-0.7,1.3-0.7,2.6v1.9h4v2.7h-4v18H552.3
				z"/>
			<path d="M576.8,477.5l3.6,0.4c-0.6,2.1-1.6,3.8-3.2,4.9c-1.5,1.2-3.5,1.8-5.9,1.8c-3,0-5.4-0.9-7.2-2.8c-1.8-1.9-2.7-4.5-2.7-7.9
				c0-3.5,0.9-6.2,2.7-8.1c1.8-1.9,4.1-2.9,7-2.9c2.8,0,5,0.9,6.8,2.8c1.8,1.9,2.6,4.5,2.6,8c0,0.2,0,0.5,0,0.9h-15.5
				c0.1,2.3,0.8,4,1.9,5.2c1.2,1.2,2.6,1.8,4.3,1.8c1.3,0,2.4-0.3,3.3-1C575.5,480.1,576.3,479,576.8,477.5z M565.3,471.8h11.6
				c-0.2-1.7-0.6-3.1-1.3-3.9c-1.1-1.4-2.6-2-4.4-2c-1.6,0-3,0.5-4.1,1.6C566,468.6,565.4,470,565.3,471.8z"/>
			<path d="M584.8,484.2v-20.7h3.2v3.1c0.8-1.5,1.6-2.4,2.2-2.9s1.4-0.7,2.3-0.7c1.2,0,2.4,0.4,3.6,1.1l-1.2,3.3
				c-0.9-0.5-1.7-0.8-2.6-0.8c-0.8,0-1.5,0.2-2.1,0.7c-0.6,0.5-1,1.1-1.3,1.9c-0.4,1.2-0.6,2.6-0.6,4.1v10.9H584.8z"/>
			<path d="M612.4,477.5l3.6,0.4c-0.6,2.1-1.6,3.8-3.2,4.9c-1.5,1.2-3.5,1.8-5.9,1.8c-3,0-5.4-0.9-7.2-2.8c-1.8-1.9-2.7-4.5-2.7-7.9
				c0-3.5,0.9-6.2,2.7-8.1c1.8-1.9,4.1-2.9,7-2.9c2.8,0,5,0.9,6.8,2.8c1.8,1.9,2.6,4.5,2.6,8c0,0.2,0,0.5,0,0.9h-15.5
				c0.1,2.3,0.8,4,1.9,5.2c1.2,1.2,2.6,1.8,4.3,1.8c1.3,0,2.4-0.3,3.3-1C611.1,480.1,611.8,479,612.4,477.5z M600.8,471.8h11.6
				c-0.2-1.7-0.6-3.1-1.3-3.9c-1.1-1.4-2.6-2-4.4-2c-1.6,0-3,0.5-4.1,1.6C601.6,468.6,600.9,470,600.8,471.8z"/>
			<path d="M620.4,484.2v-20.7h3.2v2.9c1.5-2.3,3.7-3.4,6.6-3.4c1.2,0,2.4,0.2,3.4,0.7c1,0.4,1.8,1,2.4,1.8c0.5,0.7,0.9,1.6,1.1,2.6
				c0.1,0.7,0.2,1.8,0.2,3.4v12.8h-3.5v-12.6c0-1.4-0.1-2.5-0.4-3.2c-0.3-0.7-0.8-1.3-1.5-1.7c-0.7-0.4-1.5-0.6-2.5-0.6
				c-1.5,0-2.8,0.5-3.9,1.4c-1.1,1-1.6,2.8-1.6,5.4v11.3H620.4z"/>
			<path d="M656.2,476.6l3.5,0.4c-0.4,2.4-1.3,4.2-2.9,5.6c-1.6,1.3-3.5,2-5.7,2c-2.8,0-5.1-0.9-6.8-2.8c-1.7-1.9-2.6-4.5-2.6-8
				c0-2.2,0.4-4.2,1.1-5.9s1.9-2.9,3.4-3.8c1.5-0.8,3.2-1.3,5-1.3c2.3,0,4.1,0.6,5.5,1.7c1.4,1.1,2.4,2.8,2.8,4.9l-3.4,0.5
				c-0.3-1.4-0.9-2.4-1.7-3.1c-0.8-0.7-1.8-1.1-3-1.1c-1.8,0-3.2,0.6-4.3,1.9c-1.1,1.3-1.7,3.3-1.7,6c0,2.8,0.5,4.8,1.6,6.1
				c1.1,1.3,2.5,1.9,4.2,1.9c1.4,0,2.5-0.4,3.5-1.3C655.4,479.7,656,478.3,656.2,476.6z"/>
			<path d="M676.9,477.5l3.6,0.4c-0.6,2.1-1.6,3.8-3.2,4.9c-1.5,1.2-3.5,1.8-5.9,1.8c-3,0-5.4-0.9-7.2-2.8c-1.8-1.9-2.7-4.5-2.7-7.9
				c0-3.5,0.9-6.2,2.7-8.1c1.8-1.9,4.1-2.9,7-2.9c2.8,0,5,0.9,6.8,2.8c1.8,1.9,2.6,4.5,2.6,8c0,0.2,0,0.5,0,0.9h-15.5
				c0.1,2.3,0.8,4,1.9,5.2c1.2,1.2,2.6,1.8,4.3,1.8c1.3,0,2.4-0.3,3.3-1C675.6,480.1,676.3,479,676.9,477.5z M665.3,471.8h11.6
				c-0.2-1.7-0.6-3.1-1.3-3.9c-1.1-1.4-2.6-2-4.4-2c-1.6,0-3,0.5-4.1,1.6C666,468.6,665.4,470,665.3,471.8z"/>
			<path d="M683.5,478l3.5-0.5c0.2,1.4,0.7,2.5,1.6,3.2c0.9,0.7,2.1,1.1,3.7,1.1c1.6,0,2.8-0.3,3.6-1c0.8-0.7,1.2-1.4,1.2-2.3
				c0-0.8-0.3-1.4-1-1.9c-0.5-0.3-1.7-0.7-3.6-1.2c-2.6-0.7-4.4-1.2-5.4-1.7c-1-0.5-1.8-1.1-2.3-2c-0.5-0.8-0.8-1.8-0.8-2.8
				c0-0.9,0.2-1.8,0.6-2.6c0.4-0.8,1-1.4,1.7-2c0.5-0.4,1.3-0.7,2.2-1c0.9-0.3,2-0.4,3-0.4c1.6,0,3.1,0.2,4.3,0.7s2.1,1.1,2.7,1.9
				s1,1.9,1.2,3.2l-3.4,0.5c-0.2-1.1-0.6-1.9-1.4-2.5c-0.7-0.6-1.8-0.9-3.2-0.9c-1.6,0-2.8,0.3-3.5,0.8c-0.7,0.5-1,1.2-1,1.9
				c0,0.5,0.1,0.9,0.4,1.2c0.3,0.4,0.7,0.7,1.3,0.9c0.4,0.1,1.4,0.4,3.1,0.9c2.5,0.7,4.2,1.2,5.2,1.6c1,0.4,1.8,1,2.3,1.8
				c0.6,0.8,0.8,1.8,0.8,3c0,1.2-0.3,2.3-1,3.3s-1.7,1.8-3,2.4s-2.7,0.8-4.4,0.8c-2.7,0-4.7-0.6-6.2-1.7
				C684.8,481.9,683.9,480.2,683.5,478z"/>
			<path d="M722.5,492.6c-1.9-2.4-3.6-5.3-4.9-8.6c-1.3-3.3-2-6.7-2-10.2c0-3.1,0.5-6.1,1.5-8.9c1.2-3.3,3-6.6,5.4-9.8h2.5
				c-1.6,2.7-2.6,4.6-3.1,5.8c-0.8,1.8-1.4,3.7-1.9,5.6c-0.6,2.4-0.8,4.9-0.8,7.3c0,6.3,1.9,12.5,5.8,18.8H722.5z"/>
			<path d="M751.3,481.1c1.8,1.2,3.4,2.1,4.9,2.7l-1.1,2.6c-2.1-0.7-4.1-1.9-6.2-3.5c-2.1,1.2-4.5,1.8-7,1.8c-2.6,0-4.9-0.6-7.1-1.9
				s-3.7-3-4.9-5.3c-1.1-2.3-1.7-4.8-1.7-7.7c0-2.8,0.6-5.4,1.7-7.7c1.1-2.3,2.8-4.1,4.9-5.3c2.1-1.2,4.5-1.8,7.1-1.8
				c2.6,0,5,0.6,7.1,1.9c2.1,1.3,3.7,3,4.9,5.3c1.1,2.3,1.7,4.8,1.7,7.6c0,2.4-0.4,4.5-1.1,6.4C753.8,478.1,752.7,479.7,751.3,481.1
				z M742.9,476.3c2.2,0.6,4,1.5,5.4,2.7c2.2-2,3.3-5.1,3.3-9.2c0-2.3-0.4-4.3-1.2-6.1c-0.8-1.7-1.9-3.1-3.5-4
				c-1.5-1-3.2-1.4-5.1-1.4c-2.8,0-5.2,1-7,2.9c-1.9,1.9-2.8,4.8-2.8,8.7c0,3.7,0.9,6.6,2.8,8.6c1.8,2,4.2,3,7.1,3
				c1.4,0,2.6-0.3,3.8-0.8c-1.2-0.8-2.4-1.3-3.8-1.6L742.9,476.3z"/>
			<path d="M779.5,455.6h3.8v16.5c0,2.9-0.3,5.2-1,6.9c-0.7,1.7-1.8,3.1-3.5,4.1c-1.7,1.1-3.9,1.6-6.7,1.6c-2.7,0-4.9-0.5-6.6-1.4
				c-1.7-0.9-2.9-2.3-3.7-4c-0.7-1.8-1.1-4.1-1.1-7.2v-16.5h3.8v16.5c0,2.5,0.2,4.3,0.7,5.5c0.5,1.2,1.3,2.1,2.4,2.7
				c1.1,0.6,2.5,1,4.1,1c2.8,0,4.8-0.6,6-1.9c1.2-1.3,1.8-3.7,1.8-7.3V455.6z"/>
			<path d="M790.2,484.2v-28.6h3.8v28.6H790.2z"/>
			<path d="M800.7,484.2v-28.6h9.9c2.2,0,3.9,0.1,5.1,0.4c1.6,0.4,3,1.1,4.2,2.1c1.5,1.3,2.6,2.9,3.4,4.9c0.7,2,1.1,4.3,1.1,6.8
				c0,2.2-0.3,4.1-0.8,5.8s-1.2,3.1-2,4.2c-0.8,1.1-1.7,2-2.6,2.6c-0.9,0.6-2.1,1.1-3.4,1.4c-1.3,0.3-2.9,0.5-4.6,0.5H800.7z
				 M804.5,480.8h6.1c1.9,0,3.4-0.2,4.4-0.5s1.9-0.8,2.6-1.5c0.9-0.9,1.6-2.1,2.1-3.6c0.5-1.5,0.8-3.4,0.8-5.5c0-3-0.5-5.3-1.5-6.9
				c-1-1.6-2.2-2.7-3.6-3.2c-1-0.4-2.7-0.6-4.9-0.6h-6V480.8z"/>
			<path d="M831.4,492.6h-2.5c3.9-6.2,5.8-12.5,5.8-18.8c0-2.4-0.3-4.9-0.8-7.3c-0.4-2-1.1-3.8-1.9-5.6c-0.5-1.2-1.6-3.1-3.1-5.9
				h2.5c2.4,3.3,4.3,6.6,5.4,9.8c1,2.8,1.5,5.8,1.5,8.9c0,3.5-0.7,6.9-2,10.2S833.4,490.2,831.4,492.6z"/>
		</g>
		<rect x="5.5" y="436.5" class="st9" width="16.7" height="23.7"/>
		<text transform="matrix(1 0 0 1 5.48 453.6802)" class="st11 st15">b.</text>
	</g>
</g>
</svg>
